<svg width="656" height="588" viewBox="0 0 656 588" fill="none" xmlns="http://www.w3.org/2000/svg">
<path d="M500.24 65.2308H394.204C383.755 65.2308 375.371 56.8459 375.371 46.3971C375.371 35.9483 383.755 27.5635 394.204 27.5635H500.24C510.689 27.5635 519.074 35.9483 519.074 46.3971C519.074 56.8459 510.56 65.2308 500.24 65.2308Z" fill="#3D89FA"/>
<path d="M423.229 77.0982L408.91 61.1025H439.869L423.229 77.0982Z" fill="#3D89FA"/>
<path d="M417.682 45.8816C414.844 50.5255 408.781 53.7504 401.686 53.7504C394.72 53.7504 388.657 50.5255 385.69 45.8816C388.528 41.2376 394.591 38.0127 401.686 38.0127C408.652 38.0127 414.715 41.2376 417.682 45.8816Z" fill="white"/>
<path d="M401.686 51.5578C404.821 51.5578 407.362 49.0166 407.362 45.8819C407.362 42.7472 404.821 40.2061 401.686 40.2061C398.551 40.2061 396.01 42.7472 396.01 45.8819C396.01 49.0166 398.551 51.5578 401.686 51.5578Z" fill="#3D89FA"/>
<path d="M427.614 40.8498L425.293 42.1398L424.905 40.7208L427.872 39.1729H429.42V52.5886H427.614V40.8498Z" fill="white"/>
<path d="M435.096 52.5888V51.4278L436.515 50.0088C439.998 46.7839 441.546 44.9779 441.546 43.043C441.546 41.624 440.901 40.463 438.966 40.463C437.805 40.463 436.773 41.108 436.128 41.624L435.612 40.334C436.515 39.56 437.805 38.915 439.353 38.915C442.191 38.915 443.481 40.85 443.481 42.785C443.481 45.2359 441.675 47.2999 438.837 50.0088L437.805 51.0408H443.868V52.5888H435.096Z" fill="white"/>
<path d="M446.964 50.5249C447.48 50.7829 448.641 51.2989 449.931 51.2989C452.253 51.2989 453.027 49.8799 453.027 48.719C453.027 46.784 451.35 46.01 449.544 46.01H448.512V44.591H449.544C450.834 44.591 452.511 43.946 452.511 42.2691C452.511 41.2371 451.866 40.2051 450.189 40.2051C449.157 40.2051 448.125 40.7211 447.48 41.1081L446.964 39.8181C447.738 39.3021 449.028 38.7861 450.447 38.7861C453.027 38.7861 454.317 40.3341 454.317 42.0111C454.317 43.43 453.414 44.591 451.866 45.236C453.543 45.494 454.833 46.784 454.833 48.719C454.833 50.9119 453.156 52.7179 449.931 52.7179C448.383 52.7179 447.093 52.2019 446.448 51.8149L446.964 50.5249Z" fill="white"/>
<path d="M463.476 52.5886V48.8477H457.284V47.6867L463.218 39.1729H465.153V47.5577H467.088V48.9767H465.153V52.5886H463.476V52.5886ZM463.476 47.4287V42.9138C463.476 42.2688 463.476 41.4948 463.476 40.8498C463.089 41.6238 462.702 42.2688 462.315 42.7848L459.09 47.2997H463.476V47.4287Z" fill="white"/>
<path d="M477.279 40.7206H472.119L471.603 44.2036C471.861 44.2036 472.248 44.2036 472.635 44.2036C473.667 44.2036 474.699 44.4616 475.473 44.9776C476.505 45.4936 477.408 46.7835 477.408 48.4605C477.408 51.0404 475.344 53.1044 472.377 53.1044C470.958 53.1044 469.668 52.7174 469.023 52.3304L469.539 50.9115C470.055 51.2984 471.216 51.6854 472.377 51.6854C474.054 51.6854 475.602 50.5245 475.473 48.7185C475.473 47.0415 474.312 45.7515 471.603 45.7515C470.829 45.7515 470.184 45.7515 469.668 45.8805L470.571 39.4307H477.021V40.7206H477.279Z" fill="white"/>
<path d="M488.372 40.4628C487.985 40.4628 487.469 40.4628 486.953 40.5918C484.115 41.1078 482.567 43.1718 482.309 45.3647C482.954 44.4618 484.115 43.8168 485.534 43.8168C487.856 43.8168 489.533 45.4937 489.533 48.2027C489.533 50.6536 487.856 52.9756 485.018 52.9756C482.18 52.9756 480.245 50.7826 480.245 47.2997C480.245 44.7198 481.148 42.5268 482.567 41.2368C483.728 40.2048 485.147 39.4308 486.824 39.3018C487.34 39.1728 487.856 39.1729 488.114 39.1729V40.4628H488.372ZM487.856 48.2027C487.856 46.2677 486.824 45.1067 485.147 45.1067C484.115 45.1067 483.083 45.7517 482.567 46.7837C482.438 47.0417 482.438 47.2997 482.438 47.5577C482.438 49.7507 483.47 51.4276 485.405 51.4276C486.824 51.4276 487.856 50.1377 487.856 48.2027Z" fill="white"/>
<path d="M500.885 39.1729V40.3338L495.08 52.5886H493.145L498.95 40.7208H492.371V39.1729H500.885Z" fill="white"/>
<path d="M301.197 456.609H145.497C144.981 456.609 144.465 456.093 144.465 455.577V416.62C144.465 416.104 144.981 415.588 145.497 415.588H301.197C301.713 415.588 302.229 416.104 302.229 416.62V455.577C302.229 456.222 301.713 456.609 301.197 456.609Z" fill="#ECECEC"/>
<path d="M282.879 432.874H207.416C206.384 432.874 205.61 432.1 205.61 431.068V430.81C205.61 429.778 206.384 429.004 207.416 429.004H282.879C283.911 429.004 284.685 429.778 284.685 430.81V431.068C284.814 432.1 283.911 432.874 282.879 432.874Z" fill="white"/>
<path d="M253.597 444.871H207.545C206.513 444.871 205.61 443.968 205.61 442.936C205.61 441.904 206.513 441.001 207.545 441.001H253.597C254.629 441.001 255.532 441.904 255.532 442.936C255.532 443.968 254.629 444.871 253.597 444.871Z" fill="white"/>
<path d="M190.646 436.227C190.646 439.452 189.614 442.548 187.808 444.999C185.099 448.611 180.842 451.062 175.94 451.062C171.039 451.062 166.782 448.74 164.073 444.999C162.267 442.548 161.235 439.581 161.235 436.227C161.235 428.1 167.814 421.521 175.94 421.521C184.067 421.392 190.646 427.971 190.646 436.227Z" fill="#632D8A"/>
<path d="M187.808 444.87C185.099 448.481 180.842 450.932 175.94 450.932C171.038 450.932 166.782 448.61 164.073 444.87C166.782 441.258 171.038 438.807 175.94 438.807C180.713 438.936 185.099 441.258 187.808 444.87Z" fill="white"/>
<path d="M175.941 436.227C178.862 436.227 181.229 433.859 181.229 430.938C181.229 428.017 178.862 425.649 175.941 425.649C173.02 425.649 170.652 428.017 170.652 430.938C170.652 433.859 173.02 436.227 175.941 436.227Z" fill="white"/>
<path d="M301.197 506.273H145.497C144.981 506.273 144.465 505.757 144.465 505.241V466.284C144.465 465.768 144.981 465.252 145.497 465.252H301.197C301.713 465.252 302.229 465.768 302.229 466.284V505.241C302.229 505.757 301.713 506.273 301.197 506.273Z" fill="#ECECEC"/>
<path d="M282.879 482.538H207.416C206.384 482.538 205.61 481.764 205.61 480.732V480.474C205.61 479.442 206.384 478.668 207.416 478.668H282.879C283.911 478.668 284.685 479.442 284.685 480.474V480.732C284.814 481.764 283.911 482.538 282.879 482.538Z" fill="white"/>
<path d="M253.597 494.535H207.545C206.513 494.535 205.61 493.632 205.61 492.6C205.61 491.568 206.513 490.665 207.545 490.665H253.597C254.629 490.665 255.532 491.568 255.532 492.6C255.532 493.632 254.629 494.535 253.597 494.535Z" fill="white"/>
<path d="M190.646 485.762C190.646 488.987 189.614 492.083 187.808 494.534C185.099 498.146 180.842 500.597 175.94 500.597C171.039 500.597 166.782 498.275 164.073 494.534C162.267 492.083 161.235 489.116 161.235 485.762C161.235 477.636 167.814 471.057 175.94 471.057C184.067 471.057 190.646 477.636 190.646 485.762Z" fill="#632D8A"/>
<path d="M187.808 494.534C185.099 498.146 180.842 500.597 175.94 500.597C171.038 500.597 166.782 498.275 164.073 494.534C166.782 490.923 171.038 488.472 175.94 488.472C180.713 488.472 185.099 490.923 187.808 494.534Z" fill="white"/>
<path d="M175.941 485.891C178.862 485.891 181.229 483.523 181.229 480.602C181.229 477.681 178.862 475.313 175.941 475.313C173.02 475.313 170.652 477.681 170.652 480.602C170.652 483.523 173.02 485.891 175.941 485.891Z" fill="white"/>
<path d="M542.681 432.616H503.723C501.659 432.616 499.982 430.939 499.982 428.875V389.918C499.982 387.854 501.659 386.177 503.723 386.177H542.681C544.745 386.177 546.422 387.854 546.422 389.918V428.875C546.422 430.939 544.745 432.616 542.681 432.616Z" fill="#4C2E6B"/>
<path d="M513.269 425.392C511.979 425.392 511.076 424.36 511.205 423.199L513.656 397.012C513.785 395.722 514.817 394.819 516.107 394.819C517.397 394.819 518.3 395.851 518.171 397.012L515.72 423.199C515.72 424.36 514.559 425.392 513.269 425.392Z" fill="white"/>
<path d="M529.652 425.392C528.362 425.392 527.459 424.36 527.588 423.199L530.039 397.012C530.168 395.722 531.2 394.819 532.49 394.819C533.78 394.819 534.683 395.851 534.554 397.012L532.103 423.199C531.974 424.36 530.813 425.392 529.652 425.392Z" fill="white"/>
<path d="M538.166 400.495C538.166 399.205 537.134 398.302 535.973 398.431L509.786 400.882C508.496 401.011 507.593 402.043 507.593 403.333C507.593 404.623 508.625 405.526 509.786 405.397L535.973 402.946C537.263 402.817 538.166 401.785 538.166 400.495Z" fill="white"/>
<path d="M538.166 416.749C538.166 415.459 537.134 414.556 535.973 414.685L509.786 417.136C508.496 417.265 507.593 418.297 507.593 419.587C507.593 420.877 508.625 421.78 509.786 421.651L535.973 419.2C537.263 419.2 538.166 418.039 538.166 416.749Z" fill="white"/>
<path d="M243.148 78.9044C264.877 78.9044 282.492 61.2893 282.492 39.5601C282.492 17.8309 264.877 0.21582 243.148 0.21582C221.419 0.21582 203.804 17.8309 203.804 39.5601C203.804 61.2893 221.419 78.9044 243.148 78.9044Z" fill="#FFCF44"/>
<path d="M243.148 8.60059L252.694 27.9502L274.107 31.0462L258.628 46.1389L262.24 67.4235L243.148 57.3617L224.056 67.4235L227.668 46.1389L212.318 31.0462L233.602 27.9502L243.148 8.60059Z" fill="white"/>
<path d="M415.489 438.033H313.968C312.678 438.033 311.646 437.001 311.646 435.711V386.305C311.646 385.015 312.678 383.983 313.968 383.983H415.489C416.779 383.983 417.811 385.015 417.811 386.305V435.711C417.94 437.001 416.779 438.033 415.489 438.033Z" fill="#ECECEC"/>
<path d="M406.459 406.687H379.241C377.951 406.687 376.919 405.655 376.919 404.365V403.849C376.919 402.559 377.951 401.527 379.241 401.527H406.459C407.749 401.527 408.781 402.559 408.781 403.849V404.365C408.781 405.655 407.749 406.687 406.459 406.687Z" fill="white"/>
<path d="M394.462 422.425H378.596C377.693 422.425 376.79 421.651 376.79 420.619V419.071C376.79 418.168 377.564 417.265 378.596 417.265H394.462C395.365 417.265 396.268 418.039 396.268 419.071V420.748C396.139 421.651 395.365 422.425 394.462 422.425Z" fill="white"/>
<path d="M363.632 430.939H321.579C320.16 430.939 318.87 429.778 318.87 428.23V393.529C318.87 392.11 320.031 390.82 321.579 390.82H363.632C365.051 390.82 366.341 391.981 366.341 393.529V428.23C366.341 429.778 365.051 430.939 363.632 430.939Z" fill="#DB248F"/>
<path d="M334.737 421.908V400.366C334.737 399.205 336.027 398.56 336.93 399.205L352.667 409.912C353.441 410.428 353.441 411.718 352.667 412.234L336.93 422.94C335.898 423.714 334.737 423.069 334.737 421.908Z" fill="white"/>
<path d="M556.483 96.0606V366.44C556.483 371.084 552.742 374.824 548.098 374.824H159.945C155.301 374.824 151.56 371.084 151.56 366.44V96.0606C151.56 91.4167 155.301 87.6758 159.945 87.6758H547.969C552.613 87.6758 556.483 91.4167 556.483 96.0606Z" fill="#F7F7F7"/>
<path d="M556.483 332.255V366.439C556.483 371.083 552.742 374.824 548.098 374.824H159.945C155.301 374.824 151.56 371.083 151.56 366.439V332.255H556.483Z" fill="#ECECEC"/>
<path d="M556.483 96.0606V105.864H151.56V96.0606C151.56 91.4167 155.301 87.6758 159.945 87.6758H547.969C552.613 87.6758 556.483 91.4167 556.483 96.0606Z" fill="#623880"/>
<path d="M540.488 99.2857C542.197 99.2857 543.583 97.8995 543.583 96.1897C543.583 94.4798 542.197 93.0938 540.488 93.0938C538.778 93.0938 537.392 94.4798 537.392 96.1897C537.392 97.8995 538.778 99.2857 540.488 99.2857Z" fill="white"/>
<path d="M163.17 99.2857C164.879 99.2857 166.265 97.8995 166.265 96.1897C166.265 94.4798 164.879 93.0938 163.17 93.0938C161.46 93.0938 160.074 94.4798 160.074 96.1897C160.074 97.8995 161.46 99.2857 163.17 99.2857Z" fill="white"/>
<path d="M175.94 99.2857C177.65 99.2857 179.036 97.8995 179.036 96.1897C179.036 94.4798 177.65 93.0938 175.94 93.0938C174.23 93.0938 172.844 94.4798 172.844 96.1897C172.844 97.8995 174.23 99.2857 175.94 99.2857Z" fill="white"/>
<path d="M188.711 99.2857C190.421 99.2857 191.807 97.8995 191.807 96.1897C191.807 94.4798 190.421 93.0938 188.711 93.0938C187.001 93.0938 185.615 94.4798 185.615 96.1897C185.615 97.8995 187.001 99.2857 188.711 99.2857Z" fill="white"/>
<path d="M556.354 105.864H151.56V111.669H556.354V105.864Z" fill="#3D89FA"/>
<path d="M521.396 233.443C519.59 231.637 516.752 231.637 515.075 233.443L514.043 234.475L513.011 233.443C511.205 231.637 508.367 231.637 506.69 233.443C504.884 235.249 504.884 238.087 506.69 239.764L514.043 247.117L521.396 239.764C523.202 237.958 523.202 235.12 521.396 233.443Z" fill="#E0E0E0"/>
<path d="M476.763 254.987C474.57 252.794 470.958 252.794 468.765 254.987L467.475 256.276L466.185 254.987C463.992 252.794 460.38 252.794 458.187 254.987C455.994 257.179 455.994 260.791 458.187 262.984L467.475 272.272L476.763 262.984C478.956 260.791 478.956 257.308 476.763 254.987Z" fill="#E0E0E0"/>
<path d="M432.903 216.416C431.613 215.126 429.291 215.126 428.001 216.416L427.227 217.19L426.454 216.416C425.164 215.126 422.842 215.126 421.552 216.416C420.262 217.706 420.262 220.028 421.552 221.318L427.227 226.994L432.903 221.318C434.193 220.028 434.193 217.835 432.903 216.416Z" fill="#E0E0E0"/>
<path d="M507.722 172.556C506.432 171.266 504.11 171.266 502.82 172.556L502.046 173.33L501.272 172.556C499.982 171.266 497.66 171.266 496.37 172.556C495.08 173.846 495.08 176.168 496.37 177.458L502.046 183.134L507.722 177.458C509.141 176.039 509.141 173.846 507.722 172.556Z" fill="#E0E0E0"/>
<path d="M449.931 137.985C448.641 136.695 446.319 136.695 445.029 137.985L444.255 138.759L443.481 137.985C442.191 136.695 439.869 136.695 438.579 137.985C437.289 139.275 437.289 141.597 438.579 142.887L444.255 148.563L449.931 142.887C451.35 141.597 451.35 139.404 449.931 137.985Z" fill="#E0E0E0"/>
<path d="M514.43 130.761C513.14 129.471 510.818 129.471 509.528 130.761L508.754 131.535L507.98 130.761C506.69 129.471 504.368 129.471 503.078 130.761C501.788 132.051 501.788 134.373 503.078 135.663L508.754 141.339L514.43 135.663C515.72 134.244 515.72 132.051 514.43 130.761Z" fill="#E0E0E0"/>
<path d="M530.942 258.211C526.169 253.438 518.558 253.438 513.785 258.211L511.076 260.919L508.367 258.211C503.594 253.438 495.983 253.438 491.21 258.211C486.437 262.983 486.437 270.594 491.21 275.367L511.076 295.233L530.942 275.367C535.715 270.594 535.715 262.983 530.942 258.211Z" fill="#DB248F"/>
<path d="M492.113 202.742C489.404 200.033 484.889 200.033 482.051 202.742L480.503 204.29L478.955 202.742C476.246 200.033 471.731 200.033 468.894 202.742C466.185 205.451 466.185 209.966 468.894 212.803L480.503 224.413L492.113 212.803C494.822 209.966 494.822 205.451 492.113 202.742Z" fill="#DB248F"/>
<path d="M449.415 175.136C447.093 172.814 443.481 172.814 441.159 175.136L439.869 176.426L438.579 175.136C436.257 172.814 432.645 172.814 430.323 175.136C428.001 177.458 428.001 181.07 430.323 183.392L439.869 192.938L449.415 183.392C451.737 181.199 451.737 177.458 449.415 175.136Z" fill="#DB248F"/>
<path d="M486.05 145.854C483.986 143.79 480.633 143.79 478.698 145.854L477.537 147.015L476.376 145.854C474.312 143.79 470.958 143.79 469.023 145.854C466.959 147.918 466.959 151.272 469.023 153.206L477.537 161.72L486.05 153.206C488.114 151.143 488.114 147.918 486.05 145.854Z" fill="#DB248F"/>
<path d="M194 191.132V315.486C194 320.13 190.259 323.87 185.615 323.87H72.0971C67.4532 323.87 63.7122 320.13 63.7122 315.486V191.132C63.7122 186.488 67.4532 182.747 72.0971 182.747H185.615C190.259 182.747 194 186.488 194 191.132Z" fill="#FFCF44"/>
<path d="M194 191.132V200.936H63.7122V191.132C63.7122 186.488 67.4532 182.747 72.0971 182.747H185.615C190.259 182.747 194 186.488 194 191.132Z" fill="#3D89FA"/>
<path d="M74.6772 195.389C76.387 195.389 77.7731 194.003 77.7731 192.293C77.7731 190.583 76.387 189.197 74.6772 189.197C72.9673 189.197 71.5812 190.583 71.5812 192.293C71.5812 194.003 72.9673 195.389 74.6772 195.389Z" fill="white"/>
<path d="M87.4479 195.389C89.1578 195.389 90.5439 194.003 90.5439 192.293C90.5439 190.583 89.1578 189.197 87.4479 189.197C85.7381 189.197 84.352 190.583 84.352 192.293C84.352 194.003 85.7381 195.389 87.4479 195.389Z" fill="white"/>
<path d="M100.219 195.389C101.928 195.389 103.315 194.003 103.315 192.293C103.315 190.583 101.928 189.197 100.219 189.197C98.5088 189.197 97.1227 190.583 97.1227 192.293C97.1227 194.003 98.5088 195.389 100.219 195.389Z" fill="white"/>
<path d="M107.701 213.19H84.352V216.286H107.701V213.19Z" fill="white"/>
<path d="M107.701 220.672H84.352V223.768H107.701V220.672Z" fill="white"/>
<path d="M107.701 228.025H84.352V231.121H107.701V228.025Z" fill="white"/>
<path d="M99.1867 270.853H84.352V300.78H99.1867V270.853Z" fill="#3D89FA"/>
<path d="M124.599 257.565H109.764V300.78H124.599V257.565Z" fill="#3D89FA"/>
<path d="M150.141 264.918H135.306V300.779H150.141V264.918Z" fill="#3D89FA"/>
<path d="M175.553 245.311H160.719V300.78H175.553V245.311Z" fill="#3D89FA"/>
<path d="M99.1867 285.815H84.352V300.779H99.1867V285.815Z" fill="#4C2E6B"/>
<path d="M124.599 279.237H109.764V300.78H124.599V279.237Z" fill="#4C2E6B"/>
<path d="M150.141 282.849H135.306V300.779H150.141V282.849Z" fill="#4C2E6B"/>
<path d="M175.553 273.045H160.719V300.779H175.553V273.045Z" fill="#4C2E6B"/>
<path d="M92.0919 257.566L119.439 237.184L140.595 248.02L167.813 223.64" stroke="black" stroke-width="0.25" stroke-miterlimit="10"/>
<path d="M140.595 250.342C141.877 250.342 142.917 249.303 142.917 248.02C142.917 246.738 141.877 245.698 140.595 245.698C139.313 245.698 138.273 246.738 138.273 248.02C138.273 249.303 139.313 250.342 140.595 250.342Z" fill="white"/>
<path d="M167.814 225.961C169.096 225.961 170.135 224.922 170.135 223.639C170.135 222.357 169.096 221.317 167.814 221.317C166.531 221.317 165.492 222.357 165.492 223.639C165.492 224.922 166.531 225.961 167.814 225.961Z" fill="white"/>
<path d="M119.439 239.377C120.651 239.377 121.632 238.395 121.632 237.184C121.632 235.973 120.651 234.991 119.439 234.991C118.228 234.991 117.246 235.973 117.246 237.184C117.246 238.395 118.228 239.377 119.439 239.377Z" fill="white"/>
<path d="M92.0919 259.759C93.303 259.759 94.2849 258.777 94.2849 257.566C94.2849 256.355 93.303 255.373 92.0919 255.373C90.8808 255.373 89.8989 256.355 89.8989 257.566C89.8989 258.777 90.8808 259.759 92.0919 259.759Z" fill="white"/>
<path d="M175.682 300.78H84.352V303.876H175.682V300.78Z" fill="#4C2E6B"/>
<path d="M555.709 203.773C570.813 203.773 583.057 191.529 583.057 176.426C583.057 161.322 570.813 149.078 555.709 149.078C540.606 149.078 528.362 161.322 528.362 176.426C528.362 191.529 540.606 203.773 555.709 203.773Z" fill="#FFCF44"/>
<path d="M563.062 187.52L562.804 187.907C562.159 189.068 560.611 189.584 559.321 188.939L543.455 180.038C542.294 179.393 541.778 177.845 542.423 176.555L542.681 176.168C543.326 175.007 544.874 174.491 546.164 175.136L550.549 167.396C553 163.011 558.547 161.463 562.933 163.913C565.126 165.203 566.674 167.138 567.19 169.46C567.835 171.653 567.577 174.233 566.416 176.426L562.03 184.166C563.32 184.811 563.707 186.359 563.062 187.52Z" fill="#4C2E6B"/>
<path d="M549.002 191.777C550.64 191.777 551.968 190.448 551.968 188.81C551.968 187.171 550.64 185.843 549.002 185.843C547.363 185.843 546.035 187.171 546.035 188.81C546.035 190.448 547.363 191.777 549.002 191.777Z" fill="#4C2E6B"/>
<path d="M563.578 166.622C565.074 166.622 566.287 165.409 566.287 163.913C566.287 162.417 565.074 161.204 563.578 161.204C562.082 161.204 560.869 162.417 560.869 163.913C560.869 165.409 562.082 166.622 563.578 166.622Z" fill="#4C2E6B"/>
<path d="M523.847 176.426H523.073C523.073 167.654 526.556 159.269 532.877 153.077L533.393 153.593C527.201 159.785 523.847 167.783 523.847 176.426Z" fill="black"/>
<path d="M555.709 209.062V208.288C566.416 208.288 576.349 202.999 582.283 194.099L582.928 194.486C576.865 203.644 566.674 209.062 555.709 209.062Z" fill="black"/>
<path d="M592.473 176.425H591.699C591.699 165.589 586.927 155.528 578.671 148.691L579.187 148.175C587.571 155.141 592.473 165.46 592.473 176.425Z" fill="black"/>
<path d="M519.719 176.426H518.945C518.945 165.203 523.976 154.754 532.877 147.659L533.393 148.304C524.75 155.141 519.719 165.461 519.719 176.426Z" fill="black"/>
<path d="M555.709 213.189V212.415C565.771 212.415 575.446 208.159 582.283 200.677L582.799 201.193C575.962 208.804 566.029 213.189 555.709 213.189Z" fill="black"/>
<path d="M285.201 397.528H136.854C135.564 397.528 134.532 396.496 134.532 395.206V359.344C134.532 358.054 135.564 357.022 136.854 357.022H285.201C286.491 357.022 287.523 358.054 287.523 359.344V395.206C287.523 396.496 286.491 397.528 285.201 397.528Z" fill="#623880"/>
<path d="M168.071 377.92C167.813 378.178 167.426 378.436 167.039 378.436C167.942 378.436 168.587 379.081 168.587 379.984C168.587 380.371 168.458 380.758 168.071 381.016C167.813 381.274 167.426 381.532 167.039 381.532H166.394C166.394 381.532 166.394 381.532 166.394 381.661C167.039 381.79 167.426 382.435 167.426 383.08C167.426 383.467 167.297 383.854 166.91 384.112C166.652 384.37 166.265 384.628 165.878 384.628H160.331C156.461 384.628 151.043 382.306 151.043 382.306V373.276C151.043 373.276 153.494 373.276 155.816 370.954C158.138 368.632 158.654 364.762 159.686 364.633C160.718 364.504 161.621 365.407 161.621 367.987C161.621 370.696 161.234 372.373 161.234 372.373C161.234 372.373 161.363 372.373 161.492 372.373H167.039C167.942 372.373 168.587 373.018 168.587 373.921C168.587 374.308 168.458 374.695 168.071 374.953C167.813 375.211 167.426 375.469 167.039 375.469C167.942 375.469 168.587 376.114 168.587 377.017C168.458 377.275 168.329 377.662 168.071 377.92Z" fill="white"/>
<path d="M152.075 384.498H147.044C146.657 384.498 146.27 384.111 146.27 383.724V372.502C146.27 372.115 146.657 371.728 147.044 371.728H152.075C152.462 371.728 152.849 372.115 152.849 372.502V383.724C152.849 384.24 152.462 384.498 152.075 384.498Z" fill="#3D89FA"/>
<path d="M181.874 377.533C182.132 377.275 182.519 377.017 182.906 377.017C182.003 377.017 181.358 376.372 181.358 375.469C181.358 375.082 181.487 374.695 181.874 374.437C182.132 374.179 182.519 373.921 182.906 373.921H183.551C183.551 373.921 183.551 373.921 183.551 373.792C182.906 373.663 182.519 373.018 182.519 372.373C182.519 371.986 182.648 371.599 183.035 371.341C183.293 371.083 183.68 370.825 184.067 370.825H189.614C193.484 370.825 198.902 373.147 198.902 373.147V382.177C198.902 382.177 196.451 382.177 194.129 384.499C191.807 386.821 191.291 390.691 190.259 390.82C189.227 390.949 188.324 390.046 188.324 387.466C188.324 384.757 188.711 383.08 188.711 383.08C188.711 383.08 188.582 383.08 188.453 383.08H182.906C182.003 383.08 181.358 382.435 181.358 381.532C181.358 381.145 181.487 380.758 181.874 380.5C182.132 380.242 182.519 379.984 182.906 379.984C182.003 379.984 181.358 379.339 181.358 378.436C181.487 378.178 181.616 377.791 181.874 377.533Z" fill="white"/>
<path d="M197.87 370.825H202.9C203.287 370.825 203.674 371.212 203.674 371.599V382.822C203.674 383.209 203.287 383.596 202.9 383.596H197.87C197.483 383.596 197.096 383.209 197.096 382.822V371.599C197.096 371.212 197.483 370.825 197.87 370.825Z" fill="#3D89FA"/>
<path d="M216.574 387.466C216.574 387.466 217.09 379.856 222.637 375.857C227.797 372.245 231.28 372.89 231.28 372.89V370.052L239.794 375.728L231.151 382.178V377.792C231.151 377.792 228.442 376.76 223.282 379.469C218.122 382.177 216.574 387.466 216.574 387.466Z" fill="white"/>
<path d="M255.661 379.339H253.984V387.595H255.661V379.339Z" fill="white"/>
<path d="M259.014 382.692H250.759V384.369H259.014V382.692Z" fill="white"/>
<path d="M275.913 369.02H255.403V370.696H275.913V369.02Z" fill="white"/>
<path d="M275.913 374.051H255.403V375.728H275.913V374.051Z" fill="white"/>
<path d="M275.913 378.952H261.465V380.629H275.913V378.952Z" fill="white"/>
<path d="M275.913 383.983H261.465V385.66H275.913V383.983Z" fill="white"/>
<path d="M361.826 253.309C362.987 255.244 364.535 257.824 366.212 260.791C370.211 267.499 375.5 276.142 380.273 283.753C386.593 293.943 391.882 302.328 391.882 302.328C395.881 306.456 398.848 307.101 405.814 302.328C412.78 297.426 410.071 285.688 406.588 278.851C403.234 272.014 384.014 235.25 379.112 229.445C374.21 223.769 368.147 223.769 362.6 228.8C357.053 233.831 354.731 240.796 361.826 253.309Z" fill="#632D8A"/>
<path d="M366.212 260.791C370.211 267.499 375.5 276.141 380.273 283.752L384.788 290.589L375.371 237.829L366.212 260.791Z" fill="#1E194F"/>
<path d="M448.512 237.185C449.415 236.024 450.576 233.573 452.382 228.8C454.446 223.383 452.382 223.254 451.35 224.286C450.318 225.318 448.512 229.574 447.48 231.122C446.448 232.799 445.674 234.089 445.158 234.992C443.868 237.572 445.029 241.829 448.512 237.185Z" fill="#FB9F80"/>
<path d="M446.577 232.928C447.48 231.767 449.157 228.929 451.092 223.511C453.027 218.093 451.35 217.964 450.318 218.996C449.286 220.028 447.222 224.027 446.19 225.575C445.158 227.123 444.255 228.542 443.61 229.316C441.03 232.799 442.707 237.443 446.577 232.928Z" fill="#FB9F80"/>
<path d="M443.481 229.703C444.384 228.542 447.093 224.156 449.415 218.996C451.479 214.481 449.286 213.32 448.254 214.352C447.222 215.384 444.126 220.931 442.965 222.479C441.933 224.027 441.03 225.317 440.385 226.22C439.095 228.671 439.74 234.218 443.481 229.703Z" fill="#FB9F80"/>
<path d="M439.611 228.413C440.514 227.252 442.191 224.414 444.513 219.254C446.577 214.739 444.513 213.836 443.481 214.868C442.449 215.9 439.74 220.673 438.579 222.221C437.547 223.769 436.644 225.059 435.999 225.962C434.709 228.284 435.87 232.799 439.611 228.413Z" fill="#FB9F80"/>
<path d="M448.899 236.669C448.899 236.669 443.223 245.828 439.095 247.634C434.967 249.44 431.356 246.086 429.55 243.119C428.518 241.571 428.647 235.895 428.776 230.735C428.905 226.22 428.26 221.834 428.776 221.189C429.808 219.77 431.098 220.802 432.001 222.866C432.904 224.801 433.806 229.316 433.806 229.316L437.16 225.059C437.16 225.059 440.256 226.349 444.513 230.606C448.77 234.863 448.899 236.669 448.899 236.669Z" fill="#FB9F80"/>
<path d="M431.485 237.83L417.295 259.502L426.325 266.726L440.514 244.022L431.485 237.83Z" fill="#FB9F80"/>
<path d="M436.515 229.832C436.515 229.832 438.192 232.283 437.548 235.637C436.903 238.991 436.129 239.765 436.129 239.765C436.129 239.765 436.773 236.411 436.644 233.702C436.515 230.993 436.515 229.832 436.515 229.832Z" fill="#D07A62"/>
<path d="M434.065 254.857L424.261 248.021C424.261 248.021 399.364 276.529 394.978 283.108C390.592 289.687 389.818 298.846 394.72 303.36C399.751 307.746 407.104 305.94 417.682 287.623C430.711 265.048 434.065 254.857 434.065 254.857Z" fill="#632D8A"/>
<path d="M321.966 252.406C320.547 254.212 318.741 256.534 316.548 259.243C311.646 265.306 305.196 273.046 299.391 280.012C291.78 289.17 285.33 296.781 285.33 296.781C280.815 300.264 277.719 300.522 271.528 294.846C265.336 289.041 269.722 277.819 273.979 271.498C278.364 265.177 302.487 231.38 308.163 226.478C313.839 221.447 319.902 222.35 324.546 228.155C329.448 233.83 330.737 241.054 321.966 252.406Z" fill="#632D8A"/>
<path d="M316.548 259.243C311.646 265.306 305.196 273.046 299.391 280.012L293.973 286.075L308.034 238.217L316.548 259.243Z" fill="#1E194F"/>
<path d="M219.929 132.439C219.155 132.826 218.123 132.439 217.865 131.536L212.705 119.152C212.318 118.378 212.705 117.346 213.608 117.088C214.382 116.701 215.414 117.088 215.672 117.991L220.832 130.375C221.219 131.149 220.832 132.052 219.929 132.439Z" fill="#1C64D0"/>
<path d="M206.642 136.179C205.997 136.695 204.965 136.566 204.449 135.921L196.193 125.343C195.677 124.698 195.806 123.666 196.451 123.15C197.096 122.634 198.128 122.763 198.644 123.408L206.9 133.986C207.416 134.631 207.287 135.534 206.642 136.179Z" fill="#1C64D0"/>
<path d="M193.613 148.306C193.097 148.951 192.065 149.08 191.42 148.564L181.1 139.921C180.455 139.405 180.326 138.373 180.842 137.728C181.358 137.083 182.39 136.954 183.035 137.47L193.355 146.113C194 146.629 194.129 147.661 193.613 148.306Z" fill="#1C64D0"/>
<path d="M186.131 161.979C185.744 162.753 184.841 163.14 184.067 162.882L171.684 157.722C170.91 157.335 170.523 156.432 170.781 155.658C171.168 154.884 172.071 154.497 172.844 154.755L185.228 159.915C186.131 160.173 186.518 161.076 186.131 161.979Z" fill="#1C64D0"/>
<path d="M263.917 252.922L251.275 230.606L254.629 220.802L238.117 209.708L229.861 221.834L240.697 235.25L253.339 259.63L263.917 252.922Z" fill="#FB9F80"/>
<path d="M244.567 210.224C244.567 210.224 243.019 210.482 243.664 212.804C244.309 215.126 249.082 219.382 249.082 219.382C249.082 219.382 245.728 224.155 245.986 226.735C246.244 229.315 251.275 230.476 251.275 230.476L255.532 220.672C256.048 219.511 255.661 218.092 254.629 217.447L244.567 210.224Z" fill="#FB9F80"/>
<path d="M245.986 245.569L255.79 238.604C255.79 238.604 280.3 270.208 284.298 277.045C288.297 283.882 288.684 293.041 283.395 297.297C278.107 301.554 269.335 298.716 260.563 279.496C248.953 254.083 245.986 245.569 245.986 245.569Z" fill="#632D8A"/>
<path d="M245.212 220.027C245.212 220.027 243.019 222.091 243.019 225.574C243.019 229.057 243.535 229.96 243.535 229.96C243.535 229.96 243.535 226.606 244.18 223.897C244.825 221.188 245.212 220.027 245.212 220.027Z" fill="#D07A62"/>
<path d="M231.538 233.057L225.862 226.736L243.406 209.063L251.404 217.835L231.538 233.057Z" fill="#4C2E6B"/>
<path d="M259.66 209.064C257.725 210.87 255.79 212.159 254.113 213.062C248.824 216.158 245.599 215.642 245.599 215.642L197.741 180.039L237.988 144.178L267.013 196.551C267.142 196.68 267.271 202.227 259.66 209.064Z" fill="#FFCF44"/>
<path d="M254.242 213.062C248.953 216.158 245.728 215.642 245.728 215.642L197.87 180.039L208.448 170.622L254.242 213.062Z" fill="#F4B22F"/>
<path d="M224.443 144.048L198.386 167.267C197.87 160.689 200.321 153.981 205.61 149.208C210.125 145.209 215.8 143.403 221.476 143.661C222.508 143.79 223.411 143.919 224.443 144.048Z" fill="#694E75"/>
<path d="M238.042 144.171L231.951 137.331L191.683 173.189L197.774 180.028L238.042 144.171Z" fill="#694E75"/>
<path d="M208.313 170.637L202.222 163.797L191.625 173.233L197.716 180.073L208.313 170.637Z" fill="#4B3355"/>
<path d="M275.269 208.676L260.692 222.221L257.725 225.059C256.306 226.349 253.984 226.349 252.694 224.93L240.439 211.772L245.857 206.741L263.272 190.487L275.527 203.645C276.817 205.064 276.817 207.386 275.269 208.676Z" fill="#694E75"/>
<path d="M260.692 222.221L257.725 225.059C256.306 226.349 253.984 226.349 252.694 224.93L240.439 211.772L245.857 206.741L260.692 222.221Z" fill="#4B3355"/>
<path d="M236.698 209.063L242.116 215.255C242.89 216.029 242.89 217.319 242.116 218.093C241.342 218.996 239.923 218.996 239.149 218.093L233.602 212.03C232.828 211.256 232.828 209.966 233.602 209.192C234.634 208.16 235.924 208.16 236.698 209.063Z" fill="#FB9F80"/>
<path d="M234.505 212.031L239.02 217.32C239.665 218.094 239.665 219.255 239.02 220.029C238.246 220.803 237.085 220.803 236.311 220.029L231.796 214.869C231.151 214.095 231.151 212.934 231.796 212.16C232.57 211.128 233.731 211.257 234.505 212.031Z" fill="#FB9F80"/>
<path d="M232.828 215.255L237.214 220.157C237.859 220.802 237.859 221.963 237.214 222.608C236.569 223.382 235.279 223.382 234.634 222.608L230.248 217.835C229.603 217.061 229.603 216.029 230.248 215.255C231.022 214.481 232.183 214.481 232.828 215.255Z" fill="#FB9F80"/>
<path d="M231.28 218.48L235.021 222.608C235.537 223.253 235.537 224.156 235.021 224.801C234.376 225.446 233.344 225.446 232.699 224.801L228.829 220.802C228.184 220.157 228.313 219.254 228.829 218.609C229.732 217.835 230.764 217.835 231.28 218.48Z" fill="#FB9F80"/>
<path d="M386.336 374.567H296.682L303.132 335.997L306.744 314.325H375.371L378.725 332.514L386.336 374.567Z" fill="url(#paint0_linear_4286:75318)"/>
<path d="M378.725 332.514C371.888 336.384 361.052 340.77 345.83 341.673C322.482 342.963 307.518 337.932 303.132 336.126L306.744 314.454H375.371L378.725 332.514Z" fill="#D17E2C"/>
<path d="M324.546 219.383C320.289 220.544 311.904 221.189 311.001 225.962C310.098 230.735 304.422 252.406 305.196 259.372C306.099 265.951 308.55 276.142 308.55 276.142L297.585 323.226C297.585 323.226 308.034 335.352 340.412 335.352C373.694 335.352 386.594 325.419 386.594 325.419C386.594 325.419 373.178 281.044 373.694 276.142C374.855 264.145 378.209 260.92 377.177 252.406C374.468 231.122 374.339 225.575 373.436 225.059C365.696 220.286 349.7 212.675 324.546 219.383Z" fill="#632D8A"/>
<path d="M365.954 274.852C365.954 274.852 357.956 270.853 342.606 270.595C324.933 270.337 318.225 273.949 318.225 273.949C318.225 273.949 331.512 273.046 342.993 273.046C357.44 273.046 365.954 274.852 365.954 274.852Z" fill="#1E194F"/>
<path d="M343.25 230.993C330.609 230.993 322.224 220.028 322.224 220.028C322.224 220.028 326.739 218.867 329.061 217.706C332.673 216.029 334.479 214.223 334.479 210.998V209.579C334.479 205.322 334.479 196.55 334.479 196.55L353.312 194.615C353.312 194.615 353.312 200.936 353.312 206.096V211.772C353.312 217.061 364.019 220.415 364.019 220.415C364.019 220.415 357.311 230.993 343.25 230.993Z" fill="#FB9F80"/>
<path d="M353.312 194.486C353.312 194.486 353.312 200.807 353.312 205.967C351.506 207.902 349.184 209.579 346.475 210.353C340.928 212.159 336.672 210.611 334.479 209.45C334.479 205.193 334.479 196.421 334.479 196.421L353.312 194.486Z" fill="#D07A62"/>
<path d="M361.826 179.651C361.826 193.841 352.022 207.644 342.863 207.644C334.221 207.644 323.901 193.841 323.901 179.651C323.901 165.461 329.706 153.852 342.863 153.852C356.021 153.981 361.826 165.461 361.826 179.651Z" fill="#FB9F80"/>
<path d="M323.901 170.75C323.901 170.75 316.29 170.75 316.419 179.135C316.548 188.165 325.191 188.552 325.191 188.552L323.901 170.75Z" fill="#FB9F80"/>
<path d="M361.697 170.75C361.697 170.75 369.308 170.75 369.179 179.135C369.05 188.165 360.407 188.552 360.407 188.552L361.697 170.75Z" fill="#FB9F80"/>
<path d="M364.148 175.91C364.148 175.91 366.728 175.265 367.373 178.232C368.147 181.715 364.148 184.166 364.148 184.166C364.148 184.166 366.083 182.102 365.825 178.877C365.567 175.781 364.148 175.91 364.148 175.91Z" fill="#D07A62"/>
<path d="M321.966 175.91C321.966 175.91 319.386 175.265 318.741 178.232C317.967 181.715 321.966 184.166 321.966 184.166C321.966 184.166 320.031 182.102 320.289 178.877C320.547 175.781 321.966 175.91 321.966 175.91Z" fill="#D07A62"/>
<path d="M335.639 166.494C328.932 161.721 322.74 151.917 330.479 140.823C338.219 129.729 355.505 133.47 362.729 142.113C369.953 150.885 367.502 161.979 361.955 168.3C356.408 174.621 345.185 173.202 335.639 166.494Z" fill="#4C2E6B"/>
<path d="M336.929 164.946C331.124 161.076 325.707 152.949 332.414 143.919C339.122 134.889 353.57 136.179 359.891 143.403C366.083 150.498 364.406 161.334 359.633 166.494C354.86 171.654 345.185 170.493 336.929 164.946Z" fill="#1E194F"/>
<path d="M345.959 164.43C355.292 164.43 362.858 159.232 362.858 152.82C362.858 146.408 355.292 141.21 345.959 141.21C336.626 141.21 329.061 146.408 329.061 152.82C329.061 159.232 336.626 164.43 345.959 164.43Z" fill="#DB248F"/>
<path d="M363.761 172.686L361.31 185.328L359.246 174.105C359.246 174.105 353.441 175.524 343.637 173.073C337.832 171.654 333.962 168.687 331.382 165.591C330.866 166.881 330.35 168.3 329.448 169.59C327.771 172.299 324.933 173.847 324.933 173.847L324.159 185.07L321.192 172.944C321.192 172.944 316.935 168.945 319.644 160.431C321.192 155.529 324.03 152.949 326.352 151.788C328.029 150.111 333.575 145.21 341.315 144.178C349.184 143.146 360.794 146.5 364.922 157.851C368.405 167.655 363.761 172.686 363.761 172.686Z" fill="#4C2E6B"/>
<path d="M396.139 587.413C395.236 587.026 394.849 585.994 395.236 584.962L456.123 432.616L462.444 435.196L398.461 586.252C397.945 587.284 397.042 587.8 396.139 587.413Z" fill="#201851"/>
<path d="M519.848 587.413C520.751 587.026 521.138 585.994 520.751 584.962L459.864 432.616L453.543 435.196L517.526 586.252C518.042 587.284 519.074 587.8 519.848 587.413Z" fill="#201851"/>
<path d="M499.595 357.152H422.455C420.778 357.152 419.488 355.863 419.488 354.186V304.779C419.488 303.102 420.778 301.812 422.455 301.812H499.595C501.272 301.812 502.562 303.102 502.562 304.779V354.186C502.562 355.734 501.272 357.152 499.595 357.152Z" fill="#4C2E6B"/>
<path d="M419.488 340.64C416.134 340.64 413.425 337.931 413.425 334.578V323.484C413.425 320.13 416.134 317.421 419.488 317.421V340.64Z" fill="#201851"/>
<path d="M481.664 352.767H425.68C425.035 352.767 424.519 352.251 424.519 351.606V306.715C424.519 306.07 425.035 305.554 425.68 305.554H481.664C482.309 305.554 482.825 306.07 482.825 306.715V351.606C482.825 352.251 482.309 352.767 481.664 352.767Z" fill="#201851"/>
<path d="M479.73 309.939V348.51C479.73 349.542 478.956 350.316 477.924 350.316H429.421C428.389 350.316 427.615 349.542 427.615 348.51V309.939C427.615 308.907 428.389 308.133 429.421 308.133H477.924C478.956 308.004 479.73 308.907 479.73 309.939Z" fill="#3D89FA"/>
<path d="M461.67 308.005L442.836 325.678H455.22L430.195 350.316H436.774L467.217 320.131H456.51L468.765 308.005H461.67Z" fill="#1A77FF"/>
<path d="M479.73 322.581L466.959 335.223H477.666L462.444 350.316H455.865L465.54 340.77H453.285L479.73 315.615V322.581Z" fill="#1A77FF"/>
<path d="M491.597 321.42C494.803 321.42 497.402 318.821 497.402 315.615C497.402 312.409 494.803 309.811 491.597 309.811C488.391 309.811 485.792 312.409 485.792 315.615C485.792 318.821 488.391 321.42 491.597 321.42Z" fill="#201851"/>
<path d="M497.402 332.385H486.695V335.61H497.402V332.385Z" fill="#201851"/>
<path d="M497.402 337.932H486.695V341.157H497.402V337.932Z" fill="#201851"/>
<path d="M497.402 343.479H486.695V346.703H497.402V343.479Z" fill="#201851"/>
<path d="M471.99 301.684H443.481V292.267C443.481 290.719 444.771 289.429 446.319 289.429H469.281C470.829 289.429 472.119 290.719 472.119 292.267V301.684H471.99Z" fill="#4C2E6B"/>
<path d="M468.765 292.009H446.835V299.104H468.765V292.009Z" fill="#3D89FA"/>
<path d="M482.31 357.152H433.807V364.505H482.31V357.152Z" fill="#4C2E6B"/>
<path d="M465.411 357.152H433.807V364.505H465.411V357.152Z" fill="#201851"/>
<path d="M465.411 364.505H450.576V428.101H465.411V364.505Z" fill="#4C2E6B"/>
<path d="M454.317 364.505H450.576V428.101H454.317V364.505Z" fill="#201851"/>
<path d="M465.411 364.505H450.576V376.244H465.411V364.505Z" fill="#201851"/>
<path d="M475.215 428.101H440.772V444.483H475.215V428.101Z" fill="#4C2E6B"/>
<path d="M458.961 428.101H440.772V444.483H458.961V428.101Z" fill="#201851"/>
<defs>
<linearGradient id="paint0_linear_4286:75318" x1="341.53" y1="409.726" x2="341.53" y2="312.069" gradientUnits="userSpaceOnUse">
<stop stop-color="#FAD05B"/>
<stop offset="0.0458937" stop-color="#FAD05B"/>
<stop offset="1" stop-color="#F8A35A"/>
</linearGradient>
</defs>
</svg>
