<svg xmlns="http://www.w3.org/2000/svg" width="671" height="640" viewBox="0 0 671 640" fill="none"><path d="M256.266 502.836H171.943V515.216H256.266V502.836Z" fill="#1F1950"></path><path d="M288.496 575.975H277.995L228.531 438.185H239.032L288.496 575.975Z" fill="url(#paint0_linear_850:14373)"></path><path d="M203.805 575.975H214.306L226.663 438.185H216.162L203.805 575.975Z" fill="url(#paint1_linear_850:14373)"></path><path d="M141.973 575.975H152.474L201.938 438.185H191.437L141.973 575.975Z" fill="url(#paint2_linear_850:14373)"></path><path d="M154.408 340.722H244.557C245.353 340.722 246.141 340.879 246.876 341.184C247.612 341.488 248.28 341.935 248.843 342.498C249.406 343.061 249.852 343.729 250.157 344.464C250.461 345.2 250.618 345.988 250.618 346.784V439.427H155.884C154.831 439.427 153.821 439.008 153.077 438.264C152.332 437.519 151.914 436.509 151.914 435.456V343.216C151.914 342.555 152.177 341.921 152.645 341.453C153.112 340.985 153.747 340.722 154.408 340.722Z" fill="url(#paint3_linear_850:14373)"></path><path d="M194.869 439.427H279.314C280.608 439.427 281.848 439.94 282.762 440.855C283.677 441.769 284.19 443.009 284.19 444.302V447.657C284.19 448.951 283.677 450.191 282.762 451.105C281.848 452.02 280.608 452.533 279.314 452.533H194.869V439.427Z" fill="url(#paint4_linear_850:14373)"></path><path d="M159.006 425.302V346.281C159.006 344.798 158.416 343.375 157.368 342.327C156.319 341.278 154.897 340.689 153.414 340.689C151.931 340.689 150.509 341.278 149.46 342.327C148.411 343.375 147.822 344.798 147.822 346.281V426.342C147.822 433.297 150.585 439.968 155.503 444.886C160.421 449.804 167.092 452.567 174.047 452.567H193.316C194.179 452.568 195.034 452.4 195.832 452.071C196.629 451.741 197.354 451.258 197.965 450.648C198.576 450.039 199.061 449.314 199.391 448.517C199.722 447.72 199.892 446.865 199.892 446.002C199.892 444.258 199.199 442.586 197.966 441.353C196.733 440.119 195.06 439.427 193.316 439.427H173.119C171.265 439.427 169.428 439.061 167.715 438.351C166.002 437.641 164.446 436.601 163.135 435.289C161.825 433.977 160.785 432.42 160.077 430.706C159.368 428.993 159.004 427.156 159.006 425.302Z" fill="#F69159"></path><path d="M469.622 116.642C445.449 116.648 422.004 124.914 403.172 140.069C384.34 155.225 371.252 176.36 366.077 199.973C360.902 223.585 363.951 248.257 374.719 269.9C385.486 291.542 403.325 308.856 425.28 318.971C430.556 321.404 436.024 323.394 441.63 324.921L442.223 325.088C446.055 326.112 449.942 326.919 453.865 327.504C459.083 328.262 464.349 328.636 469.622 328.622C497.55 328.335 524.236 317.04 543.883 297.19C563.53 277.34 574.551 250.539 574.551 222.61C574.551 194.681 563.53 167.88 543.883 148.03C524.236 128.18 497.55 116.884 469.622 116.597V116.642Z" fill="#1F1A4E"></path><path d="M574.622 220.189C574.622 201.165 569.503 182.491 559.802 166.126C550.101 149.762 536.175 136.309 519.485 127.178C502.796 118.048 483.956 113.577 464.944 114.234C445.931 114.891 427.445 120.651 411.425 130.911C395.405 141.172 382.441 155.553 373.893 172.549C365.344 189.544 361.526 208.526 362.839 227.505C364.151 246.483 370.547 264.759 381.354 280.415C392.161 296.072 406.982 308.531 424.262 316.488L424.743 303.27L418.212 302.543C417.701 302.485 417.215 302.291 416.806 301.98C416.396 301.669 416.078 301.253 415.886 300.777C415.693 300.3 415.633 299.78 415.712 299.272C415.791 298.764 416.005 298.286 416.333 297.89C417.122 296.931 417.526 295.713 417.466 294.473C417.406 293.232 416.887 292.059 416.009 291.18L415.785 290.968C414.933 290.119 414.324 289.057 414.023 287.892C413.722 286.727 413.74 285.503 414.074 284.347L426.085 243.081C427.642 237.699 430.662 232.856 434.808 229.089C438.954 225.321 444.064 222.779 449.57 221.743L482.214 215.659L489.226 216.107C495.195 216.48 500.818 219.037 505.023 223.29C509.228 227.543 511.722 233.194 512.029 239.167L514.713 291.907C514.848 294.571 514.217 297.218 512.895 299.535C511.573 301.851 509.615 303.741 507.254 304.981L496.137 310.807L494.191 323.109C517.163 317.394 537.561 304.156 552.137 285.505C566.713 266.853 574.628 243.86 574.622 220.189Z" fill="url(#paint5_linear_850:14373)"></path><path d="M438.923 304.869L424.743 303.281L424.262 316.488C429.541 318.928 435.014 320.925 440.623 322.46L438.923 304.869Z" fill="#CF7961"></path><path d="M514.723 291.885L512.039 239.144C511.732 233.171 509.239 227.52 505.034 223.268C500.828 219.015 495.206 216.458 489.236 216.084L482.225 215.637L449.569 221.743C444.064 222.779 438.953 225.321 434.807 229.089C430.661 232.856 427.641 237.699 426.084 243.081L414.118 284.336C413.784 285.492 413.766 286.716 414.067 287.881C414.368 289.045 414.977 290.108 415.829 290.957L416.053 291.169C416.931 292.048 417.45 293.221 417.51 294.462C417.57 295.702 417.166 296.92 416.377 297.879C416.049 298.275 415.835 298.753 415.756 299.261C415.677 299.769 415.737 300.289 415.93 300.765C416.122 301.242 416.44 301.658 416.85 301.969C417.259 302.28 417.745 302.474 418.256 302.531L424.787 303.258L438.967 304.846L427.135 303.527L429.07 290.286L434.662 252.363C434.114 257.451 435.937 276.586 437.391 290.286C438.263 298.561 439.012 304.824 439.012 304.824L440.623 322.46L441.226 322.617C445.055 323.639 448.938 324.446 452.857 325.032C459.165 315.739 471.612 296.202 470.75 287.68C469.632 276.295 485.926 235.689 485.926 235.689C485.926 235.689 490.098 259.979 488.8 272.158C487.503 284.336 483.276 290.901 485.736 300.015C486.359 302.575 487.652 304.924 489.481 306.82C491.311 308.717 493.611 310.093 496.148 310.807L507.264 304.981C509.629 303.739 511.589 301.846 512.911 299.525C514.234 297.204 514.862 294.552 514.723 291.885Z" fill="#FFB84F"></path><path d="M434.573 252.385L428.982 290.308L427.047 303.549L438.879 304.869C438.879 304.869 438.13 298.584 437.257 290.33C435.848 276.608 434.025 257.474 434.573 252.385Z" fill="#F69159"></path><path d="M485.736 300.015C483.276 290.901 487.492 284.359 488.801 272.158C490.109 259.957 485.927 235.689 485.927 235.689C485.927 235.689 469.61 276.295 470.751 287.68C471.601 296.202 459.154 315.739 452.857 325.032C458.075 325.791 463.342 326.164 468.615 326.151C477.243 326.155 485.839 325.107 494.213 323.031L496.159 310.729C493.631 310.023 491.334 308.66 489.503 306.778C487.672 304.896 486.373 302.563 485.736 300.015Z" fill="#F69159"></path><path d="M458.415 226.954C468.838 230.309 481.005 214.809 481.005 214.809L473.993 187.187L450.105 189.949C450.105 189.949 453.718 225.445 458.415 226.954Z" fill="#F79F81"></path><path d="M453.439 213.244L465.293 198.459L449.301 190.452L453.439 213.244Z" fill="#CF7961"></path><path d="M434.695 175.701C435.332 188.83 438.106 204.968 448.003 205.617C461.121 206.478 476.946 191.201 478.109 178.094C479.272 164.988 484.103 143.225 466.333 141.648C440.521 139.367 433.554 152.473 434.695 175.701Z" fill="#F79F81"></path><path d="M474.072 166.799C477.103 162.717 489.248 161.778 486.687 155.795C484.126 149.812 482.214 144.187 482.214 144.187C482.214 144.187 479.977 129.38 460.697 134.122C430.905 141.469 432.023 143.348 435.411 160.391C435.411 160.391 451.471 162.46 464.432 154.878C464.432 154.878 464.891 164.003 470.225 168.656L469.297 178.419L470.952 179.056C470.952 179.056 471.03 170.881 474.072 166.799Z" fill="#403982"></path><path d="M482.226 144.187C482.226 144.187 484.127 149.778 486.699 155.795C489.271 161.811 477.115 162.717 474.084 166.799C471.053 170.881 470.986 179.101 470.986 179.101L482.226 183.406C498.497 163.97 504.693 159.765 482.226 144.187Z" fill="#1F1A4E"></path><path d="M485.204 184.429C487.121 179.356 485.482 174.037 481.542 172.547C477.602 171.057 472.853 173.962 470.935 179.034C469.018 184.107 470.657 189.426 474.597 190.916C478.537 192.406 483.286 189.501 485.204 184.429Z" fill="#F79F81"></path><path d="M486.546 177.814L476.852 174.793C476.079 174.552 475.258 174.983 475.017 175.755L467.75 199.074C467.509 199.846 467.94 200.667 468.713 200.908L478.407 203.93C479.18 204.17 480.001 203.739 480.242 202.967L487.509 179.649C487.75 178.876 487.319 178.055 486.546 177.814Z" fill="#1F1A4E"></path><path d="M488.944 178.555L478.801 175.394C478.029 175.153 477.207 175.584 476.966 176.357L469.699 199.675C469.458 200.447 469.889 201.269 470.662 201.509L480.805 204.671C481.577 204.911 482.399 204.48 482.639 203.708L489.907 180.39C490.147 179.617 489.716 178.796 488.944 178.555Z" fill="#403982"></path><path d="M479.764 180.722C480.53 180.722 481.15 180.102 481.15 179.336C481.15 178.57 480.53 177.949 479.764 177.949C478.998 177.949 478.377 178.57 478.377 179.336C478.377 180.102 478.998 180.722 479.764 180.722Z" fill="#1F1A4E"></path><path d="M507.521 288.441L490.243 220.222C490.243 220.222 486.642 206.545 487.257 204.566C487.872 202.586 492.949 188.305 492.849 186.829C492.748 185.353 485.401 179.224 484.741 178.799C484.081 178.374 479.708 179.75 479.429 181.416C479.149 183.082 480.894 189.68 480.804 190.497C480.804 190.497 480.089 198.471 480.804 201.345C481.52 204.219 489.013 299.892 496.886 302.274C498.546 302.44 500.22 302.138 501.717 301.402C504.036 300.248 505.882 298.325 506.941 295.961C507.999 293.597 508.205 290.939 507.521 288.441Z" fill="#F79F81"></path><path d="M480.76 201.3C480.044 198.426 480.76 190.452 480.76 190.452C480.659 191.28 477.26 197.453 478.523 200.909C479.787 204.364 479.586 226.485 479.575 228.375C479.575 229.762 480.917 246.917 482.158 259.286C482.158 259.442 482.158 259.599 482.158 259.755L482.225 260.382L482.393 262.037C482.751 265.392 483.086 268.243 483.377 269.999C484.508 279.055 486.569 287.971 489.528 296.604C490.094 298.124 491.076 299.453 492.361 300.442C493.646 301.431 495.183 302.038 496.797 302.196C488.969 299.848 481.465 204.185 480.76 201.3Z" fill="#CF7961"></path><path d="M515.652 164.048L516.044 163.97C522.329 167.727 526.411 167.549 528.468 164.35L528.536 164.249C530.28 161.532 529.408 158.3 525.919 156.063C522.866 154.095 519.466 153.827 515.552 154.811L514.433 148.604C516.954 147.793 519.626 147.562 522.248 147.93C524.87 148.298 527.376 149.255 529.576 150.729C536.353 155.079 538.522 161.823 534.642 167.884L534.575 167.985C530.66 174.091 524.51 174.024 518.493 171.485L515.552 175.053L511.626 172.525L515.652 164.048ZM507.556 175.701L514.042 179.873L509.748 186.583L503.25 182.389L507.556 175.701Z" fill="#1F1A4E"></path><path d="M341.663 352.823C339.706 352.04 320.65 354.836 320.65 354.836L272.707 345.565L254.869 348.618C272.841 365.292 304.624 361.501 315.539 359.589H315.852C319.363 359.589 327.572 362.843 329.641 362.675C331.71 362.508 339.706 364.196 341.943 364.196C344.179 364.196 348.988 359.499 348.955 358.929C348.921 358.359 343.62 353.606 341.663 352.823Z" fill="#F79F81"></path><path opacity="0.57" d="M271.498 236.751L284.057 224.349H363.626C368.927 224.349 373.222 219.048 373.222 212.517V196.301C373.222 189.77 368.927 184.48 363.626 184.48H281.093C275.792 184.48 271.498 189.77 271.498 196.301V236.751Z" fill="#3960AC"></path><path d="M361.054 193.528H292.389V195.138H361.054V193.528Z" fill="#ADE1F7"></path><path d="M361.054 202.653H292.389V204.263H361.054V202.653Z" fill="#ADE1F7"></path><path d="M361.054 211.779H292.389V213.389H361.054V211.779Z" fill="#ADE1F7"></path><path opacity="0.57" d="M428.457 155.158L415.887 142.755H336.306C331.005 142.755 326.711 137.454 326.711 130.923V114.707C326.711 108.176 331.005 102.875 336.306 102.875H418.85C424.151 102.875 428.457 108.176 428.457 114.707V155.158Z" fill="#3960AC"></path><path d="M407.554 111.934H338.889V113.544H407.554V111.934Z" fill="#ADE1F7"></path><path d="M407.554 121.06H338.889V122.67H407.554V121.06Z" fill="#ADE1F7"></path><path d="M407.554 130.174H338.889V131.784H407.554V130.174Z" fill="#ADE1F7"></path><path opacity="0.25" d="M152.005 232.356H60.0778C56.1311 232.356 52.9316 235.556 52.9316 239.502V261.668C52.9316 265.614 56.1311 268.814 60.0778 268.814H152.005C155.951 268.814 159.151 265.614 159.151 261.668V239.502C159.151 235.556 155.951 232.356 152.005 232.356Z" fill="#D1DBEF"></path><path d="M140.375 242.678H71.6981C71.3964 242.649 71.1163 242.509 70.9124 242.285C70.7086 242.06 70.5957 241.768 70.5957 241.465C70.5957 241.162 70.7086 240.87 70.9124 240.645C71.1163 240.421 71.3964 240.28 71.6981 240.251H140.375C140.677 240.28 140.957 240.421 141.161 240.645C141.364 240.87 141.477 241.162 141.477 241.465C141.477 241.768 141.364 242.06 141.161 242.285C140.957 242.509 140.677 242.649 140.375 242.678Z" fill="#ADE1F7"></path><path d="M140.375 251.793H71.698C71.3777 251.793 71.0705 251.666 70.844 251.439C70.6175 251.213 70.4902 250.905 70.4902 250.585C70.4902 250.265 70.6175 249.957 70.844 249.731C71.0705 249.504 71.3777 249.377 71.698 249.377H140.375C140.695 249.377 141.002 249.504 141.229 249.731C141.455 249.957 141.583 250.265 141.583 250.585C141.583 250.905 141.455 251.213 141.229 251.439C141.002 251.666 140.695 251.793 140.375 251.793Z" fill="#ADE1F7"></path><path d="M140.375 260.918H71.698C71.5394 260.918 71.3824 260.887 71.2358 260.826C71.0893 260.766 70.9561 260.677 70.844 260.565C70.7318 260.452 70.6429 260.319 70.5822 260.173C70.5215 260.026 70.4902 259.869 70.4902 259.71C70.4902 259.552 70.5215 259.395 70.5822 259.248C70.6429 259.102 70.7318 258.969 70.844 258.856C70.9561 258.744 71.0893 258.655 71.2358 258.595C71.3824 258.534 71.5394 258.503 71.698 258.503H140.375C140.533 258.503 140.691 258.534 140.837 258.595C140.984 258.655 141.117 258.744 141.229 258.856C141.341 258.969 141.43 259.102 141.491 259.248C141.551 259.395 141.583 259.552 141.583 259.71C141.583 259.869 141.551 260.026 141.491 260.173C141.43 260.319 141.341 260.452 141.229 260.565C141.117 260.677 140.984 260.766 140.837 260.826C140.691 260.887 140.533 260.918 140.375 260.918Z" fill="#ADE1F7"></path><path opacity="0.25" d="M589.35 347.399H497.424C493.477 347.399 490.277 350.599 490.277 354.545V376.711C490.277 380.657 493.477 383.857 497.424 383.857H589.35C593.297 383.857 596.497 380.657 596.497 376.711V354.545C596.497 350.599 593.297 347.399 589.35 347.399Z" fill="#D1DBEF"></path><path d="M577.721 357.721H509.044C508.723 357.721 508.416 357.594 508.19 357.368C507.963 357.141 507.836 356.834 507.836 356.513C507.836 356.193 507.963 355.886 508.19 355.659C508.416 355.433 508.723 355.306 509.044 355.306H577.721C578.041 355.306 578.348 355.433 578.575 355.659C578.801 355.886 578.928 356.193 578.928 356.513C578.928 356.834 578.801 357.141 578.575 357.368C578.348 357.594 578.041 357.721 577.721 357.721Z" fill="#ADE1F7"></path><path d="M577.721 366.813H509.044C508.742 366.784 508.462 366.644 508.258 366.42C508.054 366.195 507.941 365.903 507.941 365.6C507.941 365.297 508.054 365.005 508.258 364.78C508.462 364.556 508.742 364.415 509.044 364.386H577.721C578.022 364.415 578.302 364.556 578.506 364.78C578.71 365.005 578.823 365.297 578.823 365.6C578.823 365.903 578.71 366.195 578.506 366.42C578.302 366.644 578.022 366.784 577.721 366.813Z" fill="#ADE1F7"></path><path d="M577.721 375.961H509.044C508.723 375.961 508.416 375.834 508.19 375.607C507.963 375.381 507.836 375.074 507.836 374.753C507.836 374.433 507.963 374.126 508.19 373.899C508.416 373.673 508.723 373.546 509.044 373.546H577.721C578.041 373.546 578.348 373.673 578.575 373.899C578.801 374.126 578.928 374.433 578.928 374.753C578.928 375.074 578.801 375.381 578.575 375.607C578.348 375.834 578.041 375.961 577.721 375.961Z" fill="#ADE1F7"></path><path d="M287.559 388.867H257.912L239.426 546.977L251.023 547.268C285.434 455.229 292.144 413.817 294.985 397.691C295.174 396.608 295.124 395.497 294.838 394.435C294.552 393.374 294.037 392.388 293.329 391.547C292.622 390.706 291.738 390.03 290.741 389.567C289.744 389.104 288.658 388.865 287.559 388.867Z" fill="#3258A7"></path><path d="M239.426 546.977C239.426 546.977 276.689 456.582 268.223 399.357C267.686 395.722 257.912 388.856 257.912 388.856L239.426 546.977Z" fill="#1E4380"></path><path d="M258.851 388.867L243.015 388.062L238.542 367.831L179.393 373.255L172.068 396.158C165.749 415.919 171.33 422.998 192.891 424.452L216.633 428.378L172.068 547.614H184.66C227.269 482.125 259.756 423.647 267.82 401.739C268.353 400.294 268.529 398.741 268.333 397.213C268.137 395.684 267.575 394.226 266.694 392.962C265.813 391.698 264.64 390.666 263.275 389.953C261.909 389.24 260.391 388.867 258.851 388.867Z" fill="#3258A7"></path><path d="M223.981 415.293C209.588 418.827 194.434 413.817 191.471 404.803C188.116 394.57 196.671 388.867 196.671 388.867L190.363 371.924L179.37 373.255L172.045 396.158C165.727 415.919 172.906 423.781 193.226 426.588L216.611 428.378L174.55 541.273C235.734 443.878 223.981 415.293 223.981 415.293Z" fill="#1E4380"></path><path d="M239.426 546.955L251.023 547.245L248.988 554.38H238.174L239.426 546.955Z" fill="#F79F81"></path><path d="M184.661 547.592L181.395 553.9H169.619L172.068 547.592H184.661Z" fill="#F79F81"></path><path d="M243.608 571.927C245.215 574.584 247.729 576.571 250.687 577.519C252.253 577.742 257.397 577.809 257.397 577.809C257.397 577.809 256.771 570.048 260.752 568.538C258.839 567.42 257.005 566.872 256.144 566.302C253.975 564.714 249.434 552.882 249.434 552.882L238.251 552.647L233.498 563.897C233.498 563.897 242.188 569.12 243.608 571.927Z" fill="#403982"></path><path d="M242.601 573.996C245.173 578.022 248.294 579.409 254.31 579.856C258.469 580.104 262.64 580.048 266.791 579.688C266.791 573.168 263.693 570.182 260.774 568.505C256.782 570.015 257.419 577.776 257.419 577.776C257.419 577.776 252.264 577.709 250.709 577.485C247.752 576.537 245.237 574.551 243.63 571.893C242.21 569.086 233.565 563.752 233.565 563.752L232.928 565.239C232.928 565.239 240.018 569.97 242.601 573.996Z" fill="white"></path><path d="M171.498 567.096C173.343 568.717 177.47 575.069 179.136 576.68C180.803 578.29 187.2 578.156 187.2 578.156C187.159 576.215 187.661 574.301 188.649 572.63C189.637 570.958 191.071 569.596 192.791 568.695C190.957 567.711 189.235 567.208 188.407 566.604C186.238 565.016 181.888 553.105 181.888 553.105L169.888 552.927L165.627 563.786C167.708 564.652 169.679 565.763 171.498 567.096Z" fill="#403982"></path><path d="M174.841 574.399C177.414 578.425 180.534 579.823 186.55 580.27C190.714 580.504 194.891 580.37 199.031 579.867C199.031 573.157 195.777 570.294 192.791 568.684C191.071 569.585 189.636 570.947 188.648 572.619C187.66 574.29 187.159 576.204 187.199 578.145C187.199 578.145 180.791 578.29 179.136 576.669C177.481 575.047 173.343 568.706 171.498 567.085C169.681 565.737 167.71 564.61 165.626 563.73L164.922 565.519C164.922 565.519 172.225 570.35 174.841 574.399Z" fill="white"></path><path d="M272.572 339.559C271.029 336.943 268.435 329.494 265.997 321.99C264.107 315.582 262.06 308.828 260.07 302.688C256.625 292.03 253.36 283.24 251.604 281.44C246.515 276.374 235.209 315.303 235.209 315.303L246.65 334.683C249.781 340.756 252.812 346.594 253.27 347.22C254.254 348.573 256.625 353.371 269.654 357.676C282.682 361.982 298.395 361.289 298.395 361.289L300.564 350.922C300.564 350.922 276.744 346.683 272.572 339.559Z" fill="#1F1A4E"></path><path d="M249.121 279.706L234.191 273.678H209.766L189.234 279.785C186.358 280.655 183.923 282.589 182.425 285.193C180.927 287.797 180.478 290.874 181.171 293.797L189.569 341.259L179.84 374.284H240.308L235.667 340.79L235.812 340.331C236.338 338.687 237.186 337.165 238.308 335.853C239.429 334.542 240.801 333.467 242.343 332.693C247.935 329.953 251.167 326.229 251.626 322.248C251.786 320.291 251.665 318.321 251.268 316.399C249.442 306.913 250.038 297.12 253.001 287.926C253.52 286.319 253.408 284.575 252.687 283.049C251.966 281.522 250.691 280.327 249.121 279.706Z" fill="#403982"></path><path d="M243.674 334.382C245.529 333.376 247.143 331.979 248.405 330.288C249.666 328.596 250.543 326.65 250.977 324.585C250.977 324.585 243.562 331.295 217.852 328.846C188.194 326.084 206.668 348.003 196.111 374.317H240.252C240.252 374.317 236.013 343.228 236.629 341.405C237.244 339.582 240.498 335.947 243.674 334.382Z" fill="#1F1A4E"></path><path d="M194.155 318.68L187.892 332.067L185.756 322.762L194.155 318.68Z" fill="#1F1A4E"></path><path d="M181.752 344.368C180.992 344.089 180.41 339.75 182.87 335.847C185.454 331.72 194.166 318.68 194.166 318.68C194.166 318.68 187.456 280.992 183.653 283.408C179.851 285.824 159.363 334.572 156.142 345.845C155.729 352.432 158.29 357.867 171.978 360.383C181.978 361.975 192.058 363.02 202.173 363.514C214.083 364.23 223.992 364.442 224.607 364.454L226.251 350.038C226.251 350.038 183.318 344.939 181.752 344.368Z" fill="#403982"></path><path d="M331.318 358.94H244.223V365.125H331.318V358.94Z" fill="#FFB84F"></path><path d="M295.9 365.136H276.81C276.766 363.855 276.981 362.578 277.441 361.382C277.901 360.186 278.597 359.094 279.487 358.172C280.378 357.251 281.445 356.518 282.625 356.017C283.805 355.517 285.074 355.259 286.355 355.259C287.637 355.259 288.906 355.517 290.085 356.017C291.265 356.518 292.332 357.251 293.223 358.172C294.114 359.094 294.81 360.186 295.27 361.382C295.73 362.578 295.944 363.855 295.9 365.136Z" fill="#D37444"></path><path d="M291.047 352.957C288.866 352.018 269.709 354.836 269.709 354.836L226.25 350.038L224.629 364.42C251.066 364.42 273.097 361.065 274.138 361.222H274.205H274.451H274.507C275.166 361.309 275.833 361.335 276.497 361.3C277.53 361.267 278.555 361.109 279.55 360.83L279.807 360.752C280.557 360.551 281.127 360.361 281.396 360.293C282.167 360.115 284.337 361.568 285.869 362.854C287.401 364.141 291.371 363.559 292.937 363.201C294.502 362.843 297.41 359.343 297.287 358.437C297.164 357.531 293.227 353.908 291.047 352.957Z" fill="#F79F81"></path><path d="M376.152 338.128H291.293C290.034 338.127 288.789 337.869 287.633 337.371C286.477 336.872 285.435 336.143 284.571 335.229C283.706 334.314 283.037 333.232 282.605 332.05C282.172 330.868 281.985 329.611 282.055 328.354L285.41 273.242C285.544 270.883 286.576 268.664 288.293 267.04C290.011 265.416 292.284 264.51 294.648 264.508H379.507C380.766 264.508 382.012 264.764 383.168 265.262C384.325 265.76 385.368 266.489 386.232 267.404C387.097 268.319 387.766 269.402 388.198 270.584C388.63 271.767 388.816 273.025 388.744 274.283L385.389 329.394C385.255 331.754 384.224 333.973 382.506 335.597C380.789 337.221 378.515 338.126 376.152 338.128Z" fill="#D37444"></path><path d="M381.464 338.128H296.605C295.347 338.127 294.101 337.869 292.946 337.371C291.79 336.872 290.748 336.143 289.883 335.229C289.019 334.314 288.35 333.232 287.917 332.05C287.485 330.868 287.298 329.611 287.368 328.354L290.723 273.242C290.857 270.883 291.888 268.664 293.606 267.04C295.323 265.416 297.597 264.51 299.96 264.508H384.819C386.079 264.508 387.325 264.764 388.481 265.262C389.637 265.76 390.68 266.489 391.545 267.404C392.41 268.319 393.079 269.402 393.511 270.584C393.942 271.767 394.128 273.025 394.057 274.283L390.702 329.394C390.568 331.754 389.536 333.973 387.819 335.597C386.101 337.221 383.828 338.126 381.464 338.128Z" fill="url(#paint6_linear_850:14373)"></path><path d="M362.742 356.748L351.995 317.305H353.784V307.911C353.784 306.173 353.094 304.506 351.865 303.277C350.636 302.048 348.969 301.357 347.231 301.357H332.066C331.206 301.357 330.355 301.527 329.56 301.856C328.766 302.186 328.044 302.669 327.436 303.278C326.829 303.886 326.347 304.609 326.019 305.404C325.691 306.199 325.523 307.051 325.524 307.911V317.305L336.618 357.934C336.702 358.245 336.713 358.571 336.651 358.888C336.589 359.204 336.455 359.502 336.259 359.758C336.063 360.014 335.812 360.222 335.523 360.365C335.234 360.509 334.916 360.583 334.594 360.584H308.771V365.225H356.256C357.289 365.227 358.308 364.991 359.235 364.534C360.162 364.078 360.97 363.413 361.598 362.593C362.226 361.773 362.656 360.818 362.854 359.805C363.053 358.791 363.014 357.745 362.742 356.748ZM349.971 350.642C348.785 350.645 347.625 350.295 346.638 349.638C345.65 348.98 344.88 348.045 344.425 346.95C343.97 345.855 343.849 344.649 344.079 343.486C344.309 342.322 344.879 341.253 345.717 340.413C346.555 339.574 347.623 339.002 348.786 338.77C349.949 338.538 351.155 338.656 352.251 339.109C353.347 339.562 354.284 340.331 354.943 341.317C355.602 342.303 355.954 343.462 355.954 344.648C355.951 346.234 355.32 347.754 354.198 348.876C353.077 349.997 351.557 350.628 349.971 350.631V350.642Z" fill="#D37444"></path><path d="M351.582 301.346H336.417C335.557 301.346 334.706 301.516 333.911 301.845C333.117 302.175 332.395 302.658 331.787 303.266C331.18 303.875 330.698 304.598 330.37 305.393C330.042 306.188 329.874 307.04 329.875 307.9V317.294H358.135V307.9C358.135 306.162 357.445 304.495 356.216 303.266C354.987 302.037 353.32 301.346 351.582 301.346Z" fill="#E3E3E3"></path><path d="M368.86 356.368L358.224 317.294H329.908L331.496 323.143L341.494 359.846C341.659 360.455 341.687 361.094 341.576 361.715C341.465 362.336 341.218 362.925 340.853 363.439C340.487 363.954 340.012 364.381 339.461 364.689C338.911 364.998 338.299 365.181 337.669 365.225H362.139C363.213 365.219 364.272 364.965 365.233 364.484C366.194 364.004 367.031 363.308 367.681 362.452C368.33 361.596 368.774 360.603 368.979 359.548C369.183 358.493 369.143 357.405 368.86 356.368ZM352.141 350.631C350.955 350.631 349.796 350.28 348.81 349.621C347.825 348.962 347.056 348.026 346.603 346.931C346.149 345.836 346.03 344.63 346.262 343.468C346.493 342.305 347.064 341.237 347.902 340.398C348.74 339.56 349.808 338.989 350.971 338.758C352.134 338.527 353.339 338.645 354.435 339.099C355.53 339.553 356.466 340.321 357.125 341.307C357.783 342.292 358.135 343.451 358.135 344.637C358.135 346.227 357.503 347.751 356.379 348.876C355.255 350 353.73 350.631 352.141 350.631Z" fill="#E3E3E3"></path><path d="M368.86 356.368L358.225 317.294H358.135V307.9C358.135 307.039 357.966 306.187 357.636 305.392C357.307 304.597 356.824 303.874 356.216 303.266C355.607 302.657 354.885 302.174 354.09 301.845C353.295 301.516 352.442 301.346 351.582 301.346H336.417C335.557 301.346 334.706 301.516 333.911 301.845C333.117 302.175 332.395 302.658 331.787 303.266C331.18 303.875 330.698 304.598 330.37 305.393C330.042 306.188 329.874 307.04 329.875 307.9V317.294L331.463 323.143L341.461 359.846C341.626 360.455 341.654 361.093 341.543 361.715C341.432 362.336 341.185 362.925 340.819 363.439C340.454 363.954 339.979 364.381 339.428 364.689C338.878 364.998 338.266 365.181 337.636 365.225H362.105C363.183 365.224 364.245 364.974 365.21 364.495C366.176 364.017 367.018 363.322 367.671 362.466C368.324 361.609 368.771 360.613 368.978 359.556C369.184 358.498 369.144 357.408 368.86 356.368ZM352.141 350.631C350.955 350.631 349.797 350.28 348.811 349.621C347.825 348.962 347.057 348.026 346.603 346.931C346.149 345.835 346.031 344.63 346.262 343.467C346.493 342.305 347.064 341.237 347.902 340.398C348.741 339.56 349.809 338.989 350.972 338.758C352.134 338.527 353.34 338.645 354.435 339.099C355.53 339.553 356.466 340.321 357.125 341.307C357.784 342.292 358.135 343.451 358.135 344.637C358.135 346.227 357.504 347.751 356.38 348.875C355.255 350 353.731 350.631 352.141 350.631Z" fill="url(#paint7_linear_850:14373)"></path><path d="M368.861 356.748C368.774 356.749 368.69 356.721 368.621 356.668C368.553 356.615 368.503 356.541 368.481 356.458L357.868 317.607C357.818 317.569 357.778 317.519 357.751 317.463C357.724 317.407 357.71 317.345 357.711 317.282V307.888C357.708 306.258 357.059 304.695 355.906 303.542C354.754 302.39 353.191 301.741 351.56 301.738H336.418C336.311 301.738 336.209 301.695 336.134 301.62C336.058 301.544 336.016 301.442 336.016 301.335C336.016 301.228 336.058 301.126 336.134 301.05C336.209 300.975 336.311 300.932 336.418 300.932H351.583C353.427 300.935 355.194 301.669 356.498 302.973C357.802 304.277 358.536 306.044 358.539 307.888V317.036C358.572 317.075 358.595 317.121 358.606 317.171L369.252 356.256C369.28 356.359 369.266 356.468 369.214 356.56C369.161 356.652 369.075 356.72 368.973 356.748H368.861Z" fill="#FFD788"></path><path d="M362.095 365.628C361.988 365.628 361.885 365.586 361.81 365.51C361.734 365.435 361.692 365.332 361.692 365.225C361.692 365.119 361.734 365.016 361.81 364.941C361.885 364.865 361.988 364.823 362.095 364.823C363.111 364.824 364.114 364.591 365.026 364.141C365.937 363.692 366.733 363.038 367.351 362.231C367.968 361.424 368.392 360.485 368.588 359.487C368.784 358.49 368.747 357.461 368.48 356.48L357.867 317.394C357.84 317.292 357.854 317.183 357.906 317.091C357.958 316.999 358.045 316.931 358.147 316.902C358.198 316.887 358.251 316.882 358.303 316.888C358.356 316.894 358.407 316.911 358.453 316.937C358.499 316.963 358.539 316.998 358.571 317.04C358.603 317.082 358.626 317.131 358.639 317.182L369.286 356.268C369.585 357.368 369.626 358.522 369.407 359.64C369.188 360.759 368.713 361.812 368.021 362.717C367.328 363.623 366.437 364.356 365.415 364.861C364.393 365.366 363.268 365.628 362.128 365.628H362.095Z" fill="#FFD788"></path><path d="M366.399 313.659C366.312 313.655 366.226 313.633 366.146 313.595C366.067 313.557 365.996 313.504 365.938 313.438C365.88 313.373 365.835 313.296 365.807 313.213C365.778 313.13 365.767 313.042 365.773 312.955L367.596 280.377C367.624 280.216 367.71 280.07 367.838 279.967C367.966 279.864 368.127 279.812 368.291 279.82C368.455 279.829 368.61 279.897 368.727 280.012C368.845 280.127 368.915 280.281 368.927 280.445L367.104 313.033C367.092 313.209 367.012 313.373 366.88 313.49C366.748 313.608 366.575 313.668 366.399 313.659Z" fill="#F4825D"></path><path d="M370.751 313.659C370.663 313.655 370.577 313.633 370.498 313.595C370.419 313.557 370.348 313.504 370.29 313.438C370.231 313.373 370.187 313.296 370.158 313.213C370.13 313.13 370.119 313.042 370.125 312.955L371.948 280.377C371.975 280.216 372.061 280.07 372.189 279.967C372.317 279.864 372.479 279.812 372.643 279.82C372.807 279.829 372.962 279.897 373.079 280.012C373.196 280.127 373.267 280.281 373.278 280.445L371.455 313.033C371.444 313.209 371.364 313.373 371.232 313.49C371.1 313.608 370.927 313.668 370.751 313.659Z" fill="#F4825D"></path><path d="M375.09 313.659C374.914 313.648 374.75 313.567 374.632 313.435C374.515 313.303 374.455 313.131 374.464 312.955L376.298 280.378C376.299 280.29 376.318 280.203 376.354 280.123C376.391 280.044 376.443 279.972 376.508 279.913C376.573 279.854 376.65 279.81 376.733 279.782C376.816 279.754 376.904 279.744 376.991 279.751C377.167 279.76 377.333 279.838 377.452 279.967C377.571 280.097 377.635 280.268 377.629 280.445L375.761 313.033C375.752 313.204 375.678 313.365 375.552 313.482C375.427 313.599 375.261 313.662 375.09 313.659Z" fill="#F4825D"></path><path d="M379.429 313.659C379.341 313.655 379.255 313.633 379.176 313.595C379.097 313.557 379.026 313.504 378.967 313.438C378.909 313.373 378.864 313.296 378.836 313.213C378.808 313.13 378.796 313.042 378.802 312.955L380.625 280.377C380.653 280.216 380.739 280.07 380.867 279.967C380.995 279.864 381.156 279.812 381.32 279.82C381.484 279.829 381.64 279.897 381.757 280.012C381.874 280.127 381.945 280.281 381.956 280.445L380.122 313.033C380.118 313.119 380.096 313.204 380.059 313.283C380.022 313.361 379.97 313.432 379.905 313.49C379.841 313.548 379.766 313.593 379.684 313.622C379.602 313.651 379.515 313.664 379.429 313.659Z" fill="#F4825D"></path><path d="M383.768 313.659C383.681 313.655 383.595 313.633 383.516 313.595C383.436 313.557 383.366 313.504 383.307 313.438C383.249 313.373 383.204 313.296 383.176 313.213C383.148 313.13 383.136 313.042 383.142 312.954L384.965 280.377C384.969 280.29 384.991 280.204 385.029 280.125C385.067 280.045 385.12 279.975 385.186 279.916C385.251 279.858 385.328 279.813 385.411 279.785C385.494 279.757 385.582 279.745 385.67 279.751C385.756 279.755 385.841 279.777 385.92 279.814C385.998 279.851 386.068 279.903 386.127 279.968C386.185 280.032 386.23 280.107 386.259 280.189C386.288 280.271 386.3 280.358 386.296 280.444L384.473 313.033C384.462 313.209 384.381 313.373 384.249 313.49C384.117 313.608 383.945 313.668 383.768 313.659Z" fill="#F4825D"></path><path d="M298.663 313.659C298.575 313.655 298.489 313.633 298.41 313.595C298.331 313.557 298.26 313.504 298.202 313.438C298.143 313.373 298.099 313.296 298.071 313.213C298.042 313.13 298.031 313.042 298.037 312.955L299.86 280.377C299.887 280.216 299.973 280.07 300.101 279.967C300.23 279.864 300.391 279.812 300.555 279.82C300.719 279.829 300.874 279.897 300.991 280.012C301.108 280.127 301.179 280.281 301.19 280.445L299.368 313.033C299.356 313.209 299.276 313.373 299.144 313.49C299.012 313.608 298.839 313.668 298.663 313.659Z" fill="#F4825D"></path><path d="M303.002 313.659C302.826 313.648 302.662 313.567 302.544 313.435C302.427 313.303 302.367 313.131 302.376 312.955L304.188 280.378C304.189 280.29 304.208 280.203 304.244 280.123C304.28 280.044 304.333 279.972 304.398 279.913C304.463 279.854 304.539 279.81 304.622 279.782C304.706 279.754 304.794 279.744 304.881 279.751C305.057 279.76 305.223 279.838 305.342 279.967C305.461 280.097 305.525 280.268 305.518 280.445L303.684 313.033C303.673 313.205 303.596 313.366 303.469 313.483C303.342 313.599 303.175 313.662 303.002 313.659Z" fill="#F4825D"></path><path d="M307.341 313.659C307.253 313.655 307.167 313.633 307.088 313.595C307.009 313.557 306.938 313.504 306.88 313.438C306.821 313.373 306.777 313.296 306.748 313.213C306.72 313.13 306.708 313.042 306.714 312.955L308.537 280.377C308.565 280.216 308.651 280.07 308.779 279.967C308.907 279.864 309.069 279.812 309.233 279.82C309.396 279.829 309.552 279.897 309.669 280.012C309.786 280.127 309.857 280.281 309.868 280.445L308.034 313.033C308.03 313.119 308.008 313.204 307.971 313.283C307.934 313.361 307.882 313.432 307.817 313.49C307.753 313.548 307.678 313.593 307.596 313.622C307.514 313.651 307.427 313.664 307.341 313.659Z" fill="#F4825D"></path><path d="M311.681 313.659C311.593 313.655 311.507 313.633 311.428 313.595C311.349 313.557 311.278 313.504 311.219 313.438C311.161 313.373 311.116 313.296 311.088 313.213C311.06 313.13 311.048 313.042 311.054 312.955L312.877 280.377C312.905 280.216 312.991 280.07 313.119 279.967C313.247 279.864 313.408 279.812 313.572 279.82C313.736 279.829 313.892 279.897 314.009 280.012C314.126 280.127 314.197 280.281 314.208 280.445L312.385 313.033C312.374 313.209 312.293 313.373 312.161 313.49C312.029 313.608 311.857 313.668 311.681 313.659Z" fill="#F4825D"></path><path d="M316.03 313.659C315.942 313.655 315.857 313.633 315.777 313.595C315.698 313.557 315.627 313.504 315.569 313.438C315.511 313.373 315.466 313.296 315.438 313.213C315.409 313.13 315.398 313.042 315.404 312.955L317.227 280.377C317.254 280.216 317.34 280.07 317.469 279.967C317.597 279.864 317.758 279.812 317.922 279.82C318.086 279.829 318.241 279.897 318.358 280.012C318.475 280.127 318.546 280.281 318.558 280.445L316.735 313.033C316.723 313.209 316.643 313.373 316.511 313.49C316.379 313.608 316.206 313.668 316.03 313.659Z" fill="#F4825D"></path><path d="M116.52 377.538H177.189V572.195C177.191 573.274 176.979 574.343 176.567 575.34C176.156 576.337 175.551 577.243 174.789 578.007C174.026 578.77 173.121 579.376 172.124 579.789C171.128 580.202 170.059 580.415 168.981 580.415H124.728C122.551 580.415 120.463 579.55 118.924 578.011C117.384 576.471 116.52 574.383 116.52 572.206V377.538Z" fill="#ADE1F7"></path><path d="M107.863 377.538H168.533V572.195C168.533 574.372 167.668 576.46 166.129 578C164.589 579.539 162.501 580.404 160.324 580.404H116.072C113.895 580.404 111.807 579.539 110.268 578C108.728 576.46 107.863 574.372 107.863 572.195V377.538Z" fill="#104AB2"></path><path opacity="0.46" d="M168.533 384.237H107.863V395.409H168.533V384.237Z" fill="#1F1A4E"></path><path d="M351.516 377.538H412.185V572.195C412.185 574.372 411.32 576.46 409.781 578C408.242 579.539 406.154 580.404 403.977 580.404H359.724C357.547 580.404 355.459 579.539 353.92 578C352.38 576.46 351.516 574.372 351.516 572.195V377.538Z" fill="#ADE1F7"></path><path d="M342.871 377.538H403.54V572.195C403.54 574.372 402.675 576.46 401.136 578C399.596 579.539 397.509 580.404 395.332 580.404H351.068C348.891 580.404 346.803 579.539 345.264 578C343.724 576.46 342.859 574.372 342.859 572.195V377.538H342.871Z" fill="#104AB2"></path><path opacity="0.46" d="M403.541 384.237H342.871V395.409H403.541V384.237Z" fill="#1F1A4E"></path><path d="M399.346 365.136H87.9913C85.1192 365.136 82.791 367.464 82.791 370.336V379.037C82.791 381.909 85.1192 384.237 87.9913 384.237H399.346C402.218 384.237 404.547 381.909 404.547 379.037V370.336C404.547 367.464 402.218 365.136 399.346 365.136Z" fill="#104AB2"></path><path d="M445.735 365.136H227.38C224.508 365.136 222.18 367.464 222.18 370.336V379.037C222.18 381.909 224.508 384.237 227.38 384.237H445.735C448.607 384.237 450.935 381.909 450.935 379.037V370.336C450.935 367.464 448.607 365.136 445.735 365.136Z" fill="#ADE1F7"></path><path d="M254.121 219.395C248.764 207.339 235.746 202.038 230.636 202.038C226.672 202.21 222.86 203.605 219.721 206.031L234.181 251.524L256.547 258.48C261.144 245.318 259.97 235.185 255.932 223.812C264.711 240.777 258.404 259.062 258.314 259.286L259.075 259.565C259.086 259.353 266.568 237.679 254.121 219.395Z" fill="#1F1A4E"></path><path d="M230.434 290.029C216.712 290.029 209.768 273.679 209.768 273.679L220.716 251.524H239.325L230.434 290.029Z" fill="#F79F81"></path><path d="M234.772 271.162L224.662 258.548L239.279 251.524L234.772 271.162Z" fill="#CF7961"></path><path d="M251.29 239.67C251.021 251.222 247.308 264.05 239.86 264.855C228.364 266.085 211.153 252.173 210.135 240.654C209.117 229.135 208.122 210.001 223.734 208.614C246.436 206.612 251.625 224.125 251.29 239.67Z" fill="#F79F81"></path><path d="M248.863 222.873C248.863 222.873 251.447 208.413 234.448 206.176C226.843 199.466 211.377 203.235 204.052 208.223C201.755 209.376 199.613 210.815 197.677 212.506C184 224.438 182.748 246.279 182.736 246.503H183.542C183.542 246.291 184.794 224.785 198.214 213.076C199.052 212.346 199.929 211.663 200.842 211.03C191.985 220.491 185.051 234.336 185.398 248.606C199.936 264.866 221.934 262.026 221.934 262.026C217.125 252.43 218.053 242.477 218.959 237.612C228.767 235.219 235.566 231.092 239.19 225.311C241.173 222.22 242.146 218.589 241.974 214.921C242.88 215.179 245.486 216.353 248.863 222.873ZM238.496 224.908C235.712 229.381 230.948 232.736 224.305 235.174C231.015 232.2 237.926 226.82 241.08 217.091C240.875 219.869 239.988 222.555 238.496 224.908Z" fill="#403982"></path><path d="M212.787 220.189H209.521V237.679H212.787V220.189Z" fill="#709480"></path><path d="M210.605 220.189H207.34V237.679H210.605V220.189Z" fill="#B4C6B6"></path><path d="M214.642 224.125V215.659C214.686 213.826 215.189 212.033 216.105 210.445C217.022 208.856 218.322 207.523 219.887 206.567C221.497 205.594 226.094 202.731 226.094 202.731C226.094 202.731 218.131 202.731 214.597 204.096L213.658 204.454C211.832 205.158 210.263 206.398 209.155 208.01C208.047 209.623 207.453 211.533 207.451 213.49V224.125H214.642Z" fill="#709480"></path><path d="M212.484 224.125V215.659C212.483 213.884 212.971 212.142 213.894 210.625C214.817 209.108 216.14 207.874 217.718 207.059L226.105 202.732L223.533 202.519C219.76 202.205 215.964 202.744 212.428 204.096L211.5 204.454C209.672 205.155 208.101 206.394 206.993 208.008C205.885 209.621 205.292 211.533 205.293 213.49V224.125H212.484Z" fill="#B4C6B6"></path><path d="M210.426 250.954C215.534 250.954 219.675 246.813 219.675 241.705C219.675 236.598 215.534 232.457 210.426 232.457C205.318 232.457 201.178 236.598 201.178 241.705C201.178 246.813 205.318 250.954 210.426 250.954Z" fill="#B4C6B6"></path><path d="M208.604 250.954C213.712 250.954 217.853 246.813 217.853 241.705C217.853 236.598 213.712 232.457 208.604 232.457C203.496 232.457 199.355 236.598 199.355 241.705C199.355 246.813 203.496 250.954 208.604 250.954Z" fill="#F1EADF"></path><path d="M208.603 247.51C211.809 247.51 214.407 244.911 214.407 241.706C214.407 238.5 211.809 235.901 208.603 235.901C205.397 235.901 202.799 238.5 202.799 241.706C202.799 244.911 205.397 247.51 208.603 247.51Z" fill="#B4C6B6"></path><path d="M208.604 244.345C210.062 244.345 211.243 243.163 211.243 241.705C211.243 240.248 210.062 239.066 208.604 239.066C207.146 239.066 205.965 240.248 205.965 241.705C205.965 243.163 207.146 244.345 208.604 244.345Z" fill="#F1EADF"></path><path d="M241.494 260.214L219.485 257.686L208 242.153L209.208 241.258L220.313 256.266L241.673 258.726L241.494 260.214Z" fill="#F1EADF"></path><path d="M242.232 256.915H236.327C235.932 256.915 235.611 257.235 235.611 257.631V260.259C235.611 260.654 235.932 260.974 236.327 260.974H242.232C242.627 260.974 242.948 260.654 242.948 260.259V257.631C242.948 257.235 242.627 256.915 242.232 256.915Z" fill="#B4C6B6"></path><path d="M96.5689 458.371C95.9538 461.29 96.8597 464.768 96.3452 467.776C95.7078 471.545 93.3146 472.63 91.693 475.001C89.7806 477.819 88.8971 483.086 89.6017 487.582C90.1499 490.179 90.852 492.741 91.7042 495.254C92.5463 497.948 92.7417 500.802 92.2745 503.585C91.3687 507.589 86.5039 510.687 86.5039 527.652C86.5039 543.13 97.553 549.146 100.684 552.938V452.567L99.2753 453.943C97.9173 455.087 96.9676 456.641 96.5689 458.371Z" fill="url(#paint8_linear_850:14373)"></path><path d="M109.474 495.254C110.327 492.746 111.026 490.187 111.566 487.593C112.27 483.12 111.398 477.83 109.474 475.012C107.853 472.641 105.471 471.557 104.822 467.788C104.308 464.779 105.225 461.301 104.598 458.383C104.216 456.639 103.273 455.068 101.914 453.909L100.494 452.534V552.904C103.625 549.113 114.675 543.096 114.675 527.619C114.675 510.654 109.81 507.556 108.904 503.552C108.442 500.78 108.638 497.937 109.474 495.254Z" fill="url(#paint9_linear_850:14373)"></path><path d="M115.056 514.299C114.217 515.418 114.597 517.062 113.837 518.213C112.897 519.667 110.795 519.611 109.196 520.26C108.249 520.663 107.445 521.341 106.889 522.207C106.333 523.072 106.049 524.085 106.075 525.114C106.248 526.367 106.547 527.6 106.97 528.793C107.174 529.393 107.24 530.032 107.163 530.661C107.085 531.291 106.867 531.895 106.523 532.427C105.337 533.926 100.931 534.183 99.1082 541.374C97.4083 547.905 105.896 552.826 108.055 555.096L119.07 512.778L117.751 513.058C116.735 513.146 115.782 513.585 115.056 514.299Z" fill="url(#paint10_linear_850:14373)"></path><path d="M120.859 520.025C120.758 518.65 121.899 517.375 121.709 516.01C121.435 515.013 120.817 514.146 119.964 513.561L118.936 512.678L107.92 555.018C110.928 554.09 120.747 553.899 122.458 547.413C124.315 540.267 120.635 537.907 120.322 536.017C120.29 535.39 120.397 534.764 120.637 534.183C120.877 533.603 121.243 533.083 121.709 532.662C122.663 531.828 123.525 530.895 124.281 529.878C124.803 528.994 125.049 527.975 124.987 526.951C124.926 525.926 124.559 524.944 123.934 524.129C122.838 522.743 120.982 521.77 120.859 520.025Z" fill="url(#paint11_linear_850:14373)"></path><path d="M106.59 559.245C103.235 554.302 82.4004 550.399 82.4004 550.399C82.4004 550.399 89.2893 557.791 89.2893 562.701C89.1402 564.608 88.7417 566.488 88.1039 568.292C87.5774 569.967 87.4523 571.741 87.7387 573.473C88.0252 575.204 88.7151 576.844 89.7527 578.259C90.7903 579.675 92.1465 580.826 93.7115 581.62C95.2766 582.414 97.0066 582.829 98.7616 582.831H99.4102C100.752 579.979 102.061 576.613 102.061 574.309C102.061 569.668 109.878 564.177 106.59 559.245Z" fill="#373175"></path><path d="M127.626 568.382C126.988 566.578 126.589 564.698 126.44 562.79C126.44 557.825 133.329 550.489 133.329 550.489H82.4004C82.4004 550.489 103.291 554.392 106.59 559.335C109.889 564.278 102.117 569.757 102.117 574.533C102.117 576.836 100.808 580.203 99.4662 583.054H117.024C118.79 583.051 120.53 582.629 122.101 581.824C123.673 581.018 125.031 579.852 126.065 578.421C127.1 576.99 127.78 575.334 128.051 573.589C128.323 571.844 128.177 570.06 127.626 568.382Z" fill="#242259"></path><path d="M560.576 474.889C561.392 479.362 558.339 491.809 560.576 495.735C562.813 499.66 567.029 508.238 563.361 515.865C559.692 523.492 555.152 544.539 580.135 545.165C605.119 545.791 600.858 518.012 598.029 512.577C595.199 507.142 591.464 501.964 590.2 490.725C588.937 479.485 587.796 475.56 574.029 465.204C560.263 454.848 558.239 452.824 555.085 456.738C551.931 460.653 558.943 465.786 560.576 474.889Z" fill="#413A82"></path><path d="M570.061 478.926C570.061 478.926 590.347 521.881 577.296 570.63" stroke="#221F1F" stroke-width="0.44" stroke-miterlimit="10" stroke-linecap="round"></path><path d="M578.179 504.659L566.771 492.447" stroke="#221F1F" stroke-width="0.44" stroke-miterlimit="10" stroke-linecap="round"></path><path d="M580.516 518.325L587.617 506.594" stroke="#221F1F" stroke-width="0.44" stroke-miterlimit="10" stroke-linecap="round"></path><path d="M581.668 535.223L567.275 522.463" stroke="#221F1F" stroke-width="0.44" stroke-miterlimit="10" stroke-linecap="round"></path><path d="M452.791 539.383C452.791 539.383 463.974 535.469 465.305 526.981C466.636 518.493 468.66 506.113 463.236 507.198C457.812 508.282 446.919 521.445 452.791 539.383Z" fill="#F9FCFF"></path><path d="M442.469 549.605C442.469 549.605 446.16 537.862 439.852 532.964C433.545 528.066 412.666 529.81 442.469 549.605Z" fill="#F9FCFF"></path><path d="M449.426 558.518C449.426 558.518 471.792 556.673 474.767 546.664C477.742 536.655 454.1 545.042 449.426 558.518Z" fill="#F9FCFF"></path><path d="M461.168 516.547C458.917 524.347 456.118 531.978 452.792 539.383C447.905 549.817 443.543 569.287 443.543 569.287C443.543 569.287 441.921 557.646 468.146 547.648" stroke="#221F1F" stroke-width="0.44" stroke-miterlimit="10" stroke-linecap="round"></path><path d="M436.273 538.511C441.435 545.419 444.537 553.646 445.22 562.242" stroke="#221F1F" stroke-width="0.44" stroke-miterlimit="10" stroke-linecap="round"></path><defs><linearGradient id="paint0_linear_850:14373" x1="259.162" y1="428.601" x2="258.022" y2="566.369" gradientUnits="userSpaceOnUse"><stop stop-color="#242259"></stop><stop offset="1" stop-color="#986DAE"></stop></linearGradient><linearGradient id="paint1_linear_850:14373" x1="4616.45" y1="53202.1" x2="3771.3" y2="70135.4" gradientUnits="userSpaceOnUse"><stop stop-color="#242259"></stop><stop offset="1" stop-color="#986DAE"></stop></linearGradient><linearGradient id="paint2_linear_850:14373" x1="9397.58" y1="53158" x2="9074.72" y2="70127.3" gradientUnits="userSpaceOnUse"><stop stop-color="#242259"></stop><stop offset="1" stop-color="#986DAE"></stop></linearGradient><linearGradient id="paint3_linear_850:14373" x1="148.022" y1="449.156" x2="236.65" y2="352.073" gradientUnits="userSpaceOnUse"><stop stop-color="#F79B5E"></stop><stop offset="0.29" stop-color="#FAAD60"></stop><stop offset="0.71" stop-color="#FEC162"></stop><stop offset="1" stop-color="#FFC863"></stop></linearGradient><linearGradient id="paint4_linear_850:14373" x1="15802.9" y1="6215.49" x2="16077.4" y2="4165.89" gradientUnits="userSpaceOnUse"><stop stop-color="#F79B5E"></stop><stop offset="0.29" stop-color="#FAAD60"></stop><stop offset="0.71" stop-color="#FEC162"></stop><stop offset="1" stop-color="#FFC863"></stop></linearGradient><linearGradient id="paint5_linear_850:14373" x1="576.255" y1="141.849" x2="356.793" y2="301.536" gradientUnits="userSpaceOnUse"><stop stop-color="#FFF4FB"></stop><stop offset="1" stop-color="#C6D6EE"></stop></linearGradient><linearGradient id="paint6_linear_850:14373" x1="389.08" y1="248.102" x2="309.008" y2="336.16" gradientUnits="userSpaceOnUse"><stop offset="0.05" stop-color="#FAD05A"></stop><stop offset="0.33" stop-color="#FAC85A"></stop><stop offset="0.77" stop-color="#F9B159"></stop><stop offset="1" stop-color="#F8A359"></stop></linearGradient><linearGradient id="paint7_linear_850:14373" x1="14704.2" y1="15546.8" x2="10442.1" y2="18424.6" gradientUnits="userSpaceOnUse"><stop offset="0.05" stop-color="#FAD05A"></stop><stop offset="0.33" stop-color="#FAC85A"></stop><stop offset="0.77" stop-color="#F9B159"></stop><stop offset="1" stop-color="#F8A359"></stop></linearGradient><linearGradient id="paint8_linear_850:14373" x1="1273.13" y1="50078.7" x2="1273.13" y2="41070.5" gradientUnits="userSpaceOnUse"><stop stop-color="#242259"></stop><stop offset="1" stop-color="#986DAE"></stop></linearGradient><linearGradient id="paint9_linear_850:14373" x1="1464.66" y1="50078.7" x2="1464.66" y2="41070.4" gradientUnits="userSpaceOnUse"><stop stop-color="#242259"></stop><stop offset="1" stop-color="#986DAE"></stop></linearGradient><linearGradient id="paint10_linear_850:14373" x1="115.961" y1="505.062" x2="105.248" y2="542.392" gradientUnits="userSpaceOnUse"><stop stop-color="#FDF4B6"></stop><stop offset="1" stop-color="#D07E2B"></stop></linearGradient><linearGradient id="paint11_linear_850:14373" x1="2046.49" y1="19753.7" x2="1324.23" y2="20769.8" gradientUnits="userSpaceOnUse"><stop stop-color="#FDF4B6"></stop><stop offset="1" stop-color="#D07E2B"></stop></linearGradient></defs></svg>