<?xml version="1.0" standalone="no"?>
<!DOCTYPE svg PUBLIC "-//W3C//DTD SVG 20010904//EN"
 "http://www.w3.org/TR/2001/REC-SVG-20010904/DTD/svg10.dtd">
<svg version="1.0" xmlns="http://www.w3.org/2000/svg"
 width="512.000000pt" height="512.000000pt" viewBox="0 0 512.000000 512.000000"
 preserveAspectRatio="xMidYMid meet">

<g transform="translate(0.000000,512.000000) scale(0.100000,-0.100000)"
fill="#000000" stroke="none">
<path d="M2360 5098 c-473 -48 -839 -174 -1200 -413 -163 -109 -266 -192 -399
-326 -386 -385 -639 -885 -715 -1409 -46 -320 -46 -460 0 -780 51 -356 184
-701 389 -1010 109 -163 192 -266 326 -399 385 -386 885 -639 1409 -715 358
-52 422 -52 780 0 356 51 701 184 1010 389 163 109 266 192 399 326 386 385
639 885 715 1409 52 358 52 422 0 780 -51 356 -184 701 -389 1010 -109 163
-192 266 -326 399 -385 386 -885 639 -1409 715 -250 36 -410 43 -590 24z
m1024 -1161 c141 -65 218 -236 171 -379 -32 -96 -87 -159 -180 -204 -30 -14
-61 -19 -125 -19 -106 0 -165 24 -232 96 -137 146 -111 372 56 483 30 20 72
40 93 46 58 14 158 4 217 -23z m-829 -272 l0 -240 -145 -5 c-167 -6 -184 -13
-239 -98 -27 -43 -31 -57 -31 -120 l0 -72 715 0 715 0 0 -725 0 -725 134 0
c101 0 136 -3 145 -14 8 -9 11 -82 9 -242 l-3 -229 -585 0 -585 0 0 240 0 240
123 3 122 3 0 494 0 495 -392 -2 -393 -3 -3 -492 -2 -493 135 0 135 0 0 -245
0 -245 -582 2 -583 3 0 240 0 240 133 3 132 3 0 494 0 494 -132 3 -133 3 0
225 0 225 132 5 133 5 3 145 c4 165 19 224 84 320 48 71 168 190 213 212 84
40 134 58 240 87 19 5 141 9 270 8 l235 -2 0 -240z"/>
</g>
</svg>
