<svg xmlns="http://www.w3.org/2000/svg" width="105" height="105" viewBox="0 0 105 105">
  <g id="services5" transform="translate(-740 -2727)">
    <circle id="Ellipse_3" data-name="Ellipse 3" cx="52.5" cy="52.5" r="52.5" transform="translate(740 2727)" fill="#fff"/>
    <g id="policy" transform="translate(764 2754)">
      <path id="Path_25" data-name="Path 25" d="M50.174,0H13.9A5.686,5.686,0,0,0,8.2,5.645L7.962,37.582H.884A.921.921,0,0,0,0,38.527v4.4a7.7,7.7,0,0,0,7.267,7.664v.053H37.808V50.58c.227.009.365.059.521.059h.022a7.678,7.678,0,0,0,7.633-7.718V14.987H55.2a.93.93,0,0,0,.885-.955V5.968A5.957,5.957,0,0,0,50.174,0ZM7.663,48.823H7.657a5.886,5.886,0,0,1-5.841-5.9V39.4H30.655v3.508A7.688,7.688,0,0,0,32.9,48.362a3.262,3.262,0,0,1,.478.461Zm36.5-5.9a5.865,5.865,0,0,1-5.817,5.9h-.019a5.9,5.9,0,0,1-5.859-5.916v-4.38a.941.941,0,0,0-.908-.945H9.779l.234-31.931A3.869,3.869,0,0,1,13.9,1.817H45.885a6.2,6.2,0,0,0-1.719,4.175ZM54.272,5.984v7.187H45.983V5.99a4.207,4.207,0,0,1,4.164-4.174h.025a4.141,4.141,0,0,1,4.1,4.16Zm0,0" transform="translate(0.001)" fill="#0c8760"/>
      <path id="Path_26" data-name="Path 26" d="M165.819,69.849l4.683,3.2a.894.894,0,0,0,1.015,0l4.669-3.2a7.055,7.055,0,0,0,2.82-5.382V57.99a.888.888,0,0,0-.484-.816l-7.13-3.507a.892.892,0,0,0-.794,0l-7.117,3.5a.886.886,0,0,0-.483.816v6.488a7.055,7.055,0,0,0,2.822,5.381Zm-1.005-11.3L171,55.494l6.188,3.062v5.913a5.234,5.234,0,0,1-2.028,3.88L170.99,71.2l-4.154-2.852a5.232,5.232,0,0,1-2.023-3.88Zm0,0" transform="translate(-144.489 -47.491)" fill="#0c8760"/>
      <path id="Path_27" data-name="Path 27" d="M203.634,121.293a.907.907,0,0,0,.643.272h0a.909.909,0,0,0,.642-.269l3.613-3.615a.909.909,0,0,0-1.284-1.286l-2.968,2.968-1.186-1.2a.909.909,0,0,0-1.291,1.28Zm0,0" transform="translate(-178.658 -102.944)" fill="#0c8760"/>
      <path id="Path_28" data-name="Path 28" d="M155.708,248h-21.8a.908.908,0,0,0,0,1.817h21.8a.908.908,0,1,0,0-1.817Zm0,0" transform="translate(-117.899 -219.842)" fill="#0c8760"/>
      <path id="Path_29" data-name="Path 29" d="M155.708,285h-21.8a.908.908,0,0,0,0,1.817h21.8a.908.908,0,1,0,0-1.817Zm0,0" transform="translate(-117.899 -252.641)" fill="#0c8760"/>
    </g>
  </g>
</svg>
