<svg xmlns="http://www.w3.org/2000/svg" width="105" height="105" viewBox="0 0 105 105">
  <g id="services4" transform="translate(-404 -2727)">
    <path id="Path_120" data-name="Path 120" d="M52.5,0A52.5,52.5,0,1,1,0,52.5,52.5,52.5,0,0,1,52.5,0Z" transform="translate(404 2727)" fill="#fff"/>
    <g id="tap" transform="translate(437 2754)">
      <path id="Path_30" data-name="Path 30" d="M34.216,51.557h-.071a3.906,3.906,0,0,0-2.632,1A4.106,4.106,0,0,0,27.7,49.776a3.955,3.955,0,0,0-2.825,1.216,4.047,4.047,0,0,0-3.611-2.31h-.076a3.708,3.708,0,0,0-2.325.775v-9.81a4.21,4.21,0,0,0-4.091-4.3,4.2,4.2,0,0,0-4.08,4.3l-.019,19.464-1.1-1.338a5.556,5.556,0,0,0-3.926-2.062,5.467,5.467,0,0,0-4.1,1.449l-.958.794A.852.852,0,0,0,.38,59L9.7,76.912a9.608,9.608,0,0,0,8.46,5.315h10.5v-.009c5.325,0,9.642-4.62,9.647-10.294,0-2.538-.007-4.43-.006-5.964.005-4.1,0-5.616-.009-10.136a4.182,4.182,0,0,0-4.077-4.268Zm2.369,14.4c0,1.534,0,3.433-.007,5.971,0,4.735-3.579,8.6-7.968,8.6H18.16a7.91,7.91,0,0,1-6.949-4.4l-9-17.3.444-.371.033-.03a3.782,3.782,0,0,1,2.84-1.02,3.866,3.866,0,0,1,2.727,1.444l2.608,3.173a.852.852,0,0,0,1.51-.54l.015-21.841a2.508,2.508,0,0,1,2.387-2.594,2.508,2.508,0,0,1,2.386,2.6V52.815c0,.046,0,.092,0,.139,0,.02,0,.04,0,.06v5.63a.852.852,0,1,0,1.7,0v-5.8a2.389,2.389,0,0,1,2.325-2.458h.076a2.487,2.487,0,0,1,2.391,2.569v5.152a.852.852,0,0,0,1.7,0V54.064a2.355,2.355,0,1,1,4.686,0v3.813a.852.852,0,1,0,1.7,0V55.813a2.475,2.475,0,0,1,2.4-2.552h.071a2.472,2.472,0,0,1,2.367,2.566c.01,4.516.008,6.028,0,10.128Zm0,0" transform="translate(-0.284 -31.583)" fill="#0c8760"/>
      <path id="Path_31" data-name="Path 31" d="M65.461,8.431a.852.852,0,0,0,.852-.852,5.9,5.9,0,0,1,11.807,0,.852.852,0,0,0,1.7,0,7.608,7.608,0,0,0-15.215,0A.852.852,0,0,0,65.461,8.431Zm0,0" transform="translate(-57.759)" fill="#0c8760"/>
    </g>
  </g>
</svg>
