<svg width="87" height="87" viewBox="0 0 87 87" fill="none" xmlns="http://www.w3.org/2000/svg">
<circle cx="43.5" cy="43.5" r="43.5" fill="#E3E8FF"/>
<g clip-path="url(#clip0_237_78)">
<path d="M46.6875 35.2528C46.6957 34.2554 46.7301 33.2811 46.4121 32.3458C46.1495 31.5713 45.5277 31.2121 44.7674 31.0737C44.0521 30.9435 43.3532 31.0243 42.6849 31.3266C41.8409 31.709 41.3029 32.342 41.0889 33.2482C40.9347 33.9 40.7185 34.0474 40.06 33.9666C39.0072 33.8386 37.9543 33.7129 36.9022 33.5812C36.3627 33.5138 36.1869 33.2557 36.2879 32.7214C36.7032 30.5192 37.8982 28.9142 39.9575 27.999C42.7134 26.7741 45.5262 26.6858 48.3651 27.678C49.1995 27.9698 49.9201 28.4682 50.5426 29.1065C51.4922 30.0815 51.8993 31.2952 51.9277 32.6024C51.9898 35.4122 51.9674 38.2235 51.9846 41.034C51.9868 41.373 51.9995 41.7157 52.0497 42.051C52.1634 42.803 52.4433 43.4892 52.9274 44.0878C53.1287 44.337 53.3247 44.5936 53.4909 44.8667C53.6764 45.1728 53.6315 45.4287 53.3771 45.6509C52.432 46.4763 51.4847 47.3001 50.5322 48.1165C50.1797 48.4188 49.7263 48.4211 49.4008 48.0791C48.8321 47.4827 48.2955 46.8557 47.7523 46.2361C47.6258 46.0924 47.5263 45.9263 47.4036 45.7564C47.2405 45.9158 47.0923 46.0528 46.9531 46.1979C44.8916 48.3657 42.3415 48.8693 39.5332 48.2609C37.4732 47.8142 36.0313 46.1373 35.7132 44.0548C35.5067 42.705 35.5546 41.3745 36.0672 40.0957C36.7743 38.329 38.101 37.1879 39.8355 36.489C41.3291 35.8874 42.8967 35.6038 44.4913 35.4504C45.2089 35.3815 45.9257 35.3209 46.6875 35.2528ZM46.674 38.2362C46.1345 38.2617 45.613 38.2759 45.0929 38.3133C44.2908 38.3717 43.5185 38.5468 42.8069 38.9426C41.9434 39.423 41.3523 40.1279 41.1966 41.1089C41.1083 41.6656 41.0836 42.2567 41.1667 42.8112C41.3792 44.2344 42.4739 44.9909 43.8777 44.7103C44.7914 44.5278 45.4087 43.9217 45.8831 43.1427C46.8057 41.6259 46.7189 39.9543 46.674 38.2362Z" fill="#767CBD"/>
<path d="M42.9648 58.9097C36.8619 58.8289 31.1615 56.6678 26.2722 52.3832C26.1847 52.3069 26.071 52.2328 26.0343 52.1333C25.9939 52.0233 25.9812 51.8512 26.0418 51.7704C26.1009 51.6918 26.267 51.6768 26.389 51.6693C26.4556 51.6656 26.5274 51.7322 26.5947 51.7711C30.2029 53.8603 34.0626 55.2573 38.1804 55.9091C44.5235 56.9125 50.6856 56.2421 56.6494 53.8341C56.7938 53.7757 56.933 53.7054 57.0781 53.6485C57.4201 53.5146 57.7 53.6036 57.8571 53.8917C57.9933 54.1417 57.9222 54.3429 57.5982 54.5727C55.5135 56.0483 53.226 57.0966 50.7784 57.8105C48.3554 58.5183 45.8861 58.9037 42.9648 58.9097Z" fill="#767CBD"/>
<path d="M57.2817 52.2965C56.4474 52.3915 55.6661 52.4866 54.8834 52.5636C54.7428 52.5779 54.5946 52.5195 54.4502 52.4948C54.522 52.3459 54.555 52.1334 54.6732 52.0608C55.0758 51.8124 55.4888 51.5475 55.9348 51.4075C57.2278 51.002 58.5508 50.8344 59.9044 51.0948C60.8959 51.2856 61.062 51.4135 60.9827 52.417C60.8398 54.2301 60.2104 55.8553 58.8957 57.1656C58.8269 57.2337 58.7588 57.3242 58.6742 57.3504C58.5395 57.3923 58.3899 57.3893 58.247 57.4058C58.2402 57.2726 58.1923 57.1259 58.232 57.0077C58.5702 55.996 58.9331 54.9933 59.2661 53.9801C59.3432 53.7452 59.3544 53.4833 59.3619 53.2326C59.3746 52.7814 59.2407 52.5711 58.7955 52.4836C58.2836 52.3826 57.7583 52.3526 57.2817 52.2965Z" fill="#767CBD"/>
</g>
<defs>
<clipPath id="clip0_237_78">
<rect width="35" height="31.9096" fill="white" transform="translate(26 27)"/>
</clipPath>
</defs>
</svg>
