<svg xmlns="http://www.w3.org/2000/svg" width="105" height="105" viewBox="0 0 105 105">
  <g id="services7" transform="translate(-1412 -2727)">
    <circle id="Ellipse_5" data-name="Ellipse 5" cx="52.5" cy="52.5" r="52.5" transform="translate(1412 2727)" fill="#fff"/>
    <g id="offer" transform="translate(1439 2754)">
      <path id="Path_20" data-name="Path 20" d="M115.67,22.138l0,.032a5.471,5.471,0,0,0,3.123,5.219l.021.01a3.678,3.678,0,0,1,1.666,1.6l.008.015a5.717,5.717,0,0,0,5.373,3l.034,0a3.912,3.912,0,0,1,2.313.6,5.864,5.864,0,0,0,6.219,0,3.912,3.912,0,0,1,2.313-.6l.034,0a5.72,5.72,0,0,0,5.374-3L142.15,29a3.685,3.685,0,0,1,1.671-1.606l.017-.008a5.471,5.471,0,0,0,3.123-5.22l0-.03a3.5,3.5,0,0,1,.609-2.17,5.383,5.383,0,0,0,0-6.087,3.5,3.5,0,0,1-.61-2.169l0-.032a5.471,5.471,0,0,0-3.124-5.22l-.018-.009a3.675,3.675,0,0,1-1.664-1.6l-.011-.021a5.721,5.721,0,0,0-5.372-3l-.035,0a3.909,3.909,0,0,1-2.312-.6h0a5.864,5.864,0,0,0-6.219,0,3.915,3.915,0,0,1-2.313.6l-.034,0a5.717,5.717,0,0,0-5.372,3l-.008.014a3.681,3.681,0,0,1-1.668,1.6l-.019.009a5.471,5.471,0,0,0-3.123,5.22l0,.03a3.5,3.5,0,0,1-.609,2.169,5.383,5.383,0,0,0,0,6.087,3.5,3.5,0,0,1,.609,2.169Zm.945-7.185a5.4,5.4,0,0,0,.94-3.347l0-.032a3.588,3.588,0,0,1,2.061-3.412l.016-.008a5.557,5.557,0,0,0,2.517-2.423l.009-.018a3.827,3.827,0,0,1,3.6-1.991h.033a5.782,5.782,0,0,0,3.42-.889,3.967,3.967,0,0,1,4.207,0,5.8,5.8,0,0,0,3.42.889l.033,0a3.821,3.821,0,0,1,3.6,1.987l.012.024A5.556,5.556,0,0,0,143,8.153l.016.008a3.589,3.589,0,0,1,2.063,3.414l0,.034a5.4,5.4,0,0,0,.941,3.347,3.486,3.486,0,0,1,0,3.943,5.4,5.4,0,0,0-.94,3.348l0,.032a3.59,3.59,0,0,1-2.064,3.415L143,25.7a5.563,5.563,0,0,0-2.519,2.427l-.007.014a3.825,3.825,0,0,1-3.6,1.991l-.033,0a5.793,5.793,0,0,0-3.421.889,3.967,3.967,0,0,1-4.206,0,5.784,5.784,0,0,0-3.1-.9q-.16,0-.32.009h-.033a3.823,3.823,0,0,1-3.6-1.993l-.01-.018a5.55,5.55,0,0,0-2.513-2.419l-.018-.009a3.588,3.588,0,0,1-2.063-3.414l0-.034a5.4,5.4,0,0,0-.941-3.347,3.486,3.486,0,0,1,0-3.943Zm0,0" transform="translate(-100.655 -0.346)" fill="#0c8760"/>
      <path id="Path_21" data-name="Path 21" d="M204.948,76.589a.944.944,0,0,0,1.3-.3l11.18-17.91a.944.944,0,1,0-1.6-1l-11.18,17.91A.944.944,0,0,0,204.948,76.589Zm0,0" transform="translate(-180.379 -50.252)" fill="#0c8760"/>
      <path id="Path_22" data-name="Path 22" d="M185.6,70.224c2.3,0,4.168-2.132,4.168-4.753s-1.87-4.752-4.168-4.752-4.168,2.132-4.168,4.752S183.3,70.224,185.6,70.224Zm0-7.618a2.94,2.94,0,1,1-2.28,2.865A2.626,2.626,0,0,1,185.6,62.606Zm0,0" transform="translate(-160.03 -53.596)" fill="#0c8760"/>
      <path id="Path_23" data-name="Path 23" d="M267.684,145.268c0,2.621,1.87,4.752,4.168,4.752s4.168-2.132,4.168-4.752-1.87-4.752-4.168-4.752A4.494,4.494,0,0,0,267.684,145.268Zm6.448,0a2.34,2.34,0,1,1-2.281-2.865A2.626,2.626,0,0,1,274.132,145.268Zm0,0" transform="translate(-236.105 -123.98)" fill="#0c8760"/>
      <path id="Path_24" data-name="Path 24" d="M50.569,271.184a4.767,4.767,0,0,0-6.3-1.919l-7.393,3.493a6.022,6.022,0,0,0-5.134-3.167l-6.825-.188a7.214,7.214,0,0,1-3.1-.8l-.694-.36a12.249,12.249,0,0,0-11.346.012l.043-1.573a.944.944,0,0,0-.917-.97l-7.484-.206a.943.943,0,0,0-.969.917L0,282.846a.944.944,0,0,0,.917.97l7.484.206h.026a.944.944,0,0,0,.943-.918l.021-.786,1.944-1.041A3.336,3.336,0,0,1,13.826,281l11.609,3.258.061.015a12.432,12.432,0,0,0,2.552.263,12.592,12.592,0,0,0,5.26-1.148.926.926,0,0,0,.117-.064l16.833-10.889a.943.943,0,0,0,.309-1.257ZM1.914,281.955l.4-14.536,5.6.154-.4,14.536Zm30.545-.247a10.7,10.7,0,0,1-6.544.73l-11.579-3.249a5.217,5.217,0,0,0-3.89.425l-.994.532.266-9.665a10.373,10.373,0,0,1,10.539-.562l.694.36a9.111,9.111,0,0,0,3.918,1.012l6.825.188a4.139,4.139,0,0,1,3.934,3.3l-10.166-.28a.944.944,0,0,0-.052,1.887l11.219.309h.027a.944.944,0,0,0,.943-.918,6.022,6.022,0,0,0-.091-1.224l7.581-3.583.022-.011a2.883,2.883,0,0,1,3.261.456Zm0,0" transform="translate(0 -234.224)" fill="#0c8760"/>
    </g>
  </g>
</svg>
