<?xml version="1.0" standalone="no"?>
<!DOCTYPE svg PUBLIC "-//W3C//DTD SVG 20010904//EN"
 "http://www.w3.org/TR/2001/REC-SVG-20010904/DTD/svg10.dtd">
<svg version="1.0" xmlns="http://www.w3.org/2000/svg"
 width="512.000000pt" height="512.000000pt" viewBox="0 0 512.000000 512.000000"
 preserveAspectRatio="xMidYMid meet">

<g transform="translate(0.000000,512.000000) scale(0.100000,-0.100000)"
fill="#000000" stroke="none">
<path d="M2260 5081 c-244 -34 -321 -51 -530 -121 -602 -201 -1133 -660 -1429
-1235 -302 -584 -365 -1285 -173 -1910 200 -650 638 -1183 1231 -1499 354
-188 694 -278 1136 -302 122 -7 353 13 545 47 386 68 792 256 1115 516 112 91
313 292 396 398 232 295 393 627 484 995 35 146 66 410 66 580 1 500 -144 986
-418 1405 -272 415 -710 779 -1138 945 -33 13 -65 27 -70 31 -14 10 -232 77
-326 100 -262 63 -638 84 -889 50z m-930 -2063 l0 -543 25 -69 c27 -77 61
-125 124 -173 87 -67 241 -86 356 -43 81 31 163 112 196 195 l24 60 3 558 2
557 199 0 198 0 47 -127 c87 -233 211 -498 306 -652 l34 -54 16 49 c93 271
261 446 510 534 79 28 277 39 370 21 91 -18 221 -73 294 -125 131 -94 256
-258 299 -391 44 -139 47 -314 8 -450 -70 -242 -251 -445 -479 -537 -123 -50
-200 -62 -342 -55 -135 7 -269 43 -394 106 -44 23 -80 40 -81 38 -1 -1 -14
-60 -28 -132 -50 -248 -108 -519 -121 -574 -8 -31 -17 -68 -20 -83 l-6 -28
-199 0 c-109 0 -200 2 -202 5 -3 2 12 84 32 182 56 266 119 556 125 576 3 10
23 99 43 197 l37 177 -34 49 c-57 84 -144 226 -189 309 l-43 80 0 -126 c0
-141 -18 -231 -68 -342 -172 -378 -618 -551 -987 -382 -183 83 -312 216 -395
404 -56 129 -59 169 -60 779 l0 552 200 0 200 0 0 -542z"/>
<path d="M3454 2929 c-128 -40 -227 -177 -260 -359 -9 -47 -24 -114 -34 -150
l-19 -64 32 -27 c51 -43 177 -107 248 -125 90 -23 210 -22 277 4 109 42 196
133 238 249 22 61 26 84 22 146 -16 243 -263 403 -504 326z"/>
</g>
</svg>
